<?xml version="1.0" encoding="utf-8"?>
<!-- Generator: Adobe Illustrator 24.3.0, SVG Export Plug-In . SVG Version: 6.00 Build 0)  -->
<svg version="1.1" id="Layer_1" xmlns="http://www.w3.org/2000/svg" xmlns:xlink="http://www.w3.org/1999/xlink" x="0px" y="0px"
	 viewBox="0 0 868 476" style="enable-background:new 0 0 868 476;" xml:space="preserve">
<style type="text/css">
	.st0{clip-path:url(#SVGID_2_);fill:#00ADF0;}
	.st1{clip-path:url(#SVGID_2_);fill:#EB8B0A;}
	.st2{clip-path:url(#SVGID_2_);fill:#2B66B0;}
	.st3{fill:#111225;}
	.st4{fill:#FFFFFF;}
	.st5{fill:none;stroke:#1D1D1B;}
</style>
<g>
	<defs>
		<rect id="SVGID_1_" x="-11.8" y="25.1" width="891.6" height="425.9"/>
	</defs>
	<clipPath id="SVGID_2_">
		<use xlink:href="#SVGID_1_"  style="overflow:visible;"/>
	</clipPath>
	<path class="st0" d="M147.8,189.6c45.4,0,82.3-36.8,82.3-82.3s-36.8-82.3-82.3-82.3s-82.3,36.8-82.3,82.3S102.3,189.6,147.8,189.6"
		/>
	<path class="st1" d="M433.6,189.6c45.4,0,82.3-36.8,82.3-82.3S479,25.1,433.6,25.1s-82.3,36.8-82.3,82.3S388.1,189.6,433.6,189.6"
		/>
	<path class="st2" d="M719.4,189.6c45.4,0,82.3-36.8,82.3-82.3s-36.8-82.3-82.3-82.3c-45.4,0-82.3,36.8-82.3,82.3
		S673.9,189.6,719.4,189.6"/>
</g>
<g>
	<path class="st3" d="M68.4,241.2c0-5.3,4.1-9.2,9.6-9.2c5.5,0,9.5,3.9,9.5,9.2s-4.1,9.2-9.5,9.2C72.4,250.4,68.4,246.4,68.4,241.2z
		 M84.9,241.2c0-4-3-6.9-7-6.9c-4,0-7,2.9-7,6.9s3,6.9,7,6.9C81.9,248.1,84.9,245.2,84.9,241.2z"/>
	<path class="st3" d="M106.6,245.3c0,3.1-2.3,4.9-6.9,4.9h-8.6v-18h8.1c4.1,0,6.4,1.7,6.4,4.6c0,2-1,3.3-2.4,4
		C105.3,241.4,106.6,242.9,106.6,245.3z M93.7,234.3v5.8H99c2.6,0,4.1-1,4.1-2.9s-1.5-2.9-4.1-2.9H93.7z M104,245.1
		c0-2.1-1.5-3-4.4-3h-5.9v6h5.9C102.5,248.1,104,247.2,104,245.1z"/>
	<path class="st3" d="M107.4,247.8l1.5-1.7c1,1.4,2.2,2.1,3.7,2.1c2,0,3.1-1.2,3.1-3.6v-10.1h-6.5v-2.2h9v12.2c0,4-2,6-5.6,6
		C110.5,250.4,108.6,249.4,107.4,247.8z"/>
	<path class="st3" d="M136.3,247.9v2.2h-13v-18H136v2.2h-10.1v5.5h9v2.2h-9v5.8H136.3z"/>
	<path class="st3" d="M138.7,241.2c0-5.3,4.1-9.2,9.5-9.2c2.8,0,5.2,1,6.8,2.8l-1.7,1.6c-1.4-1.5-3.1-2.1-5.1-2.1
		c-4.1,0-7.1,2.9-7.1,6.9s3,6.9,7.1,6.9c2,0,3.7-0.7,5.1-2.2l1.7,1.6c-1.6,1.8-4.1,2.8-6.9,2.8C142.8,250.4,138.7,246.5,138.7,241.2
		z"/>
	<path class="st3" d="M161.9,234.4h-6.2v-2.2h14.9v2.2h-6.2v15.7h-2.5V234.4z"/>
	<path class="st3" d="M173.1,232.2h2.6v18h-2.6V232.2z"/>
	<path class="st3" d="M196.3,232.2l-7.9,18h-2.5l-7.9-18h2.8l6.5,14.8l6.5-14.8H196.3z"/>
	<path class="st3" d="M211.4,247.9v2.2h-13v-18H211v2.2h-10.1v5.5h9v2.2h-9v5.8H211.4z"/>
	<path class="st3" d="M213.6,248.1l1-2c1.3,1.2,3.6,2.1,5.9,2.1c3.1,0,4.4-1.2,4.4-2.8c0-4.4-10.9-1.6-10.9-8.3
		c0-2.8,2.2-5.1,6.9-5.1c2.1,0,4.3,0.6,5.8,1.6l-0.8,2.1c-1.6-1-3.3-1.5-4.9-1.5c-3.1,0-4.4,1.3-4.4,2.9c0,4.4,10.9,1.6,10.9,8.2
		c0,2.7-2.2,5.1-7,5.1C217.8,250.4,215.1,249.4,213.6,248.1z"/>
</g>
<g>
	<path class="st3" d="M355.7,242.2l-3.3,3.3v4.6h-2.6v-18h2.6v10l9.8-10h2.9l-7.7,8.1l8.2,9.9h-3L355.7,242.2z"/>
	<path class="st3" d="M381.1,247.9v2.2h-13v-18h12.7v2.2h-10.1v5.5h9v2.2h-9v5.8H381.1z"/>
	<path class="st3" d="M391.7,243.9v6.2h-2.5v-6.3l-7.1-11.7h2.7l5.8,9.5l5.8-9.5h2.5L391.7,243.9z"/>
	<path class="st3" d="M419.9,250.2l-3.9-5.5c-0.4,0-0.7,0.1-1.1,0.1h-4.4v5.5h-2.6v-18h7c4.7,0,7.5,2.4,7.5,6.3c0,2.8-1.4,4.8-4,5.7
		l4.3,6H419.9z M419.8,238.5c0-2.6-1.7-4-5-4h-4.4v8.1h4.4C418.1,242.5,419.8,241,419.8,238.5z"/>
	<path class="st3" d="M439.3,247.9v2.2h-13v-18H439v2.2h-10.1v5.5h9v2.2h-9v5.8H439.3z"/>
	<path class="st3" d="M441.6,248.1l1-2c1.3,1.2,3.6,2.1,5.9,2.1c3.1,0,4.4-1.2,4.4-2.8c0-4.4-10.9-1.6-10.9-8.3
		c0-2.8,2.2-5.1,6.9-5.1c2.1,0,4.3,0.6,5.8,1.6l-0.8,2.1c-1.6-1-3.3-1.5-4.9-1.5c-3.1,0-4.4,1.3-4.4,2.9c0,4.4,10.9,1.6,10.9,8.2
		c0,2.7-2.2,5.1-7,5.1C445.7,250.4,443,249.4,441.6,248.1z"/>
	<path class="st3" d="M458.8,242.4v-10.2h2.6v10.1c0,4,1.8,5.8,5.1,5.8s5.1-1.8,5.1-5.8v-10.1h2.5v10.2c0,5.2-2.9,8-7.6,8
		C461.7,250.4,458.8,247.6,458.8,242.4z"/>
	<path class="st3" d="M479,232.2h2.6v15.7h9.7v2.2H479V232.2z"/>
	<path class="st3" d="M495.9,234.4h-6.2v-2.2h14.9v2.2h-6.2v15.7h-2.5V234.4z"/>
	<path class="st3" d="M505.3,248.1l1-2c1.3,1.2,3.6,2.1,5.9,2.1c3.1,0,4.4-1.2,4.4-2.8c0-4.4-10.9-1.6-10.9-8.3
		c0-2.8,2.2-5.1,6.9-5.1c2.1,0,4.3,0.6,5.8,1.6l-0.8,2.1c-1.6-1-3.3-1.5-4.9-1.5c-3.1,0-4.4,1.3-4.4,2.9c0,4.4,10.9,1.6,10.9,8.2
		c0,2.7-2.2,5.1-7,5.1C509.5,250.4,506.8,249.4,505.3,248.1z"/>
</g>
<g>
	<path class="st3" d="M647.6,232.2h2.6v18h-2.6V232.2z"/>
	<path class="st3" d="M670.8,232.2v18h-2.1l-10.8-13.4v13.4h-2.6v-18h2.1l10.8,13.4v-13.4H670.8z"/>
	<path class="st3" d="M675.9,232.2h2.6v18h-2.6V232.2z"/>
	<path class="st3" d="M687.2,234.4H681v-2.2h14.9v2.2h-6.2v15.7h-2.5V234.4z"/>
	<path class="st3" d="M698.5,232.2h2.6v18h-2.6V232.2z"/>
	<path class="st3" d="M717.6,245.7h-9.6l-2,4.5h-2.6l8.1-18h2.5l8.2,18h-2.7L717.6,245.7z M716.7,243.6l-3.9-8.8l-3.9,8.8H716.7z"/>
	<path class="st3" d="M727.4,234.4h-6.2v-2.2h14.9v2.2h-6.2v15.7h-2.5V234.4z"/>
	<path class="st3" d="M738.7,232.2h2.6v18h-2.6V232.2z"/>
	<path class="st3" d="M761.8,232.2l-7.9,18h-2.5l-7.9-18h2.8l6.5,14.8l6.5-14.8H761.8z"/>
	<path class="st3" d="M776.9,247.9v2.2h-13v-18h12.7v2.2h-10.1v5.5h9v2.2h-9v5.8H776.9z"/>
	<path class="st3" d="M779.2,248.1l1-2c1.3,1.2,3.6,2.1,5.9,2.1c3.1,0,4.4-1.2,4.4-2.8c0-4.4-10.9-1.6-10.9-8.3
		c0-2.8,2.2-5.1,6.9-5.1c2.1,0,4.3,0.6,5.8,1.6l-0.8,2.1c-1.6-1-3.3-1.5-4.9-1.5c-3.1,0-4.4,1.3-4.4,2.9c0,4.4,10.9,1.6,10.9,8.2
		c0,2.7-2.2,5.1-7,5.1C783.3,250.4,780.6,249.4,779.2,248.1z"/>
</g>
<g>
	<path class="st4" d="M116,107.5c0-16.2,12.5-28.3,29.5-28.3c16.8,0,29.3,12,29.3,28.3c0,16.3-12.5,28.3-29.3,28.3
		C128.4,135.8,116,123.7,116,107.5z M166.8,107.5c0-12.2-9.2-21.3-21.4-21.3c-12.4,0-21.6,9-21.6,21.3s9.2,21.3,21.6,21.3
		C157.7,128.7,166.8,119.7,166.8,107.5z"/>
</g>
<g>
	<path class="st4" d="M402.2,110.6l-10.1,10.3v14.3h-7.9V79.8h7.9v30.9l30-30.9h9l-23.6,24.9l25.1,30.4h-9.2L402.2,110.6z"/>
	<path class="st4" d="M477.3,135.1l-11.9-17c-1.1,0.1-2.3,0.2-3.5,0.2h-13.7v16.8h-7.9V79.8h21.6c14.4,0,23.1,7.3,23.1,19.3
		c0,8.5-4.4,14.7-12.2,17.5l13.1,18.6H477.3z M477,99.1c0-7.9-5.3-12.4-15.4-12.4h-13.4v24.9h13.4C471.7,111.6,477,107,477,99.1z"/>
</g>
<g>
	<path class="st4" d="M714.5,79.8h7.9v55.3h-7.9V79.8z"/>
</g>
<g>
	<path class="st3" d="M59.7,291.9c0,1.4-0.5,2.4-1.4,3.1s-2.2,1.1-3.9,1.1h-2.2v5.8h-1v-14.1h3.5C58.1,287.8,59.7,289.2,59.7,291.9z
		 M52.2,295.2h1.9c1.6,0,2.7-0.3,3.4-0.8c0.7-0.5,1.1-1.4,1.1-2.6c0-1.1-0.3-1.9-1-2.4c-0.7-0.5-1.7-0.8-3.1-0.8h-2.3V295.2z"/>
	<path class="st3" d="M66.7,291.2c0.4,0,0.9,0,1.4,0.1l-0.2,0.9c-0.4-0.1-0.9-0.2-1.4-0.2c-0.9,0-1.6,0.4-2.2,1.1s-0.9,1.7-0.9,2.9
		v5.8h-1v-10.5h0.8l0.1,1.9h0.1c0.4-0.8,0.9-1.3,1.4-1.6C65.4,291.4,66,291.2,66.7,291.2z"/>
	<path class="st3" d="M78.9,296.7c0,1.7-0.4,3-1.2,4c-0.8,1-2,1.4-3.4,1.4c-0.9,0-1.7-0.2-2.4-0.7c-0.7-0.4-1.2-1.1-1.6-1.9
		c-0.4-0.8-0.6-1.8-0.6-2.9c0-1.7,0.4-3,1.2-4c0.8-1,2-1.4,3.4-1.4c1.4,0,2.6,0.5,3.4,1.5C78.5,293.6,78.9,295,78.9,296.7z
		 M70.6,296.7c0,1.4,0.3,2.6,1,3.4c0.6,0.8,1.5,1.2,2.7,1.2c1.2,0,2.1-0.4,2.7-1.2c0.6-0.8,1-1.9,1-3.4c0-1.4-0.3-2.6-1-3.4
		s-1.5-1.2-2.7-1.2s-2,0.4-2.7,1.2S70.6,295.2,70.6,296.7z"/>
	<path class="st3" d="M84.1,301.9l-4.1-10.5h1l2.7,7.1c0.4,0.9,0.6,1.7,0.8,2.4h0.1c0.3-0.9,0.5-1.7,0.8-2.4l2.7-7.1h1l-4.1,10.5
		H84.1z"/>
	<path class="st3" d="M90.8,288.5c0-0.6,0.2-0.9,0.6-0.9c0.2,0,0.4,0.1,0.5,0.2c0.1,0.2,0.2,0.4,0.2,0.7c0,0.3-0.1,0.5-0.2,0.7
		c-0.1,0.2-0.3,0.3-0.5,0.3C91,289.5,90.8,289.1,90.8,288.5z M91.8,301.9h-1v-10.5h1V301.9z"/>
	<path class="st3" d="M99.2,291.2c0.8,0,1.4,0.1,2,0.4c0.6,0.3,1,0.7,1.5,1.4h0.1c0-0.8-0.1-1.6-0.1-2.4v-3.8h0.9v15H103l-0.2-1.6
		h-0.1c-0.8,1.2-1.9,1.8-3.4,1.8c-1.4,0-2.6-0.4-3.3-1.4c-0.8-0.9-1.1-2.2-1.1-3.9c0-1.8,0.4-3.2,1.1-4.2
		C96.6,291.7,97.7,291.2,99.2,291.2z M99.2,292.1c-1.1,0-2,0.4-2.6,1.2s-0.9,2-0.9,3.5c0,3,1.2,4.5,3.5,4.5c1.2,0,2.1-0.3,2.6-1
		c0.6-0.7,0.8-1.8,0.8-3.4v-0.2c0-1.6-0.3-2.8-0.8-3.5S100.4,292.1,99.2,292.1z"/>
	<path class="st3" d="M111.3,302.1c-1.5,0-2.7-0.5-3.6-1.4c-0.9-0.9-1.3-2.3-1.3-3.9c0-1.7,0.4-3,1.2-4c0.8-1,1.9-1.5,3.3-1.5
		c1.2,0,2.2,0.4,2.9,1.3c0.7,0.9,1.1,2,1.1,3.5v0.8h-7.6c0,1.4,0.3,2.5,1,3.3c0.7,0.8,1.6,1.1,2.8,1.1c0.6,0,1.1,0,1.6-0.1
		c0.5-0.1,1-0.3,1.7-0.5v0.9c-0.6,0.3-1.1,0.4-1.6,0.5C112.5,302.1,111.9,302.1,111.3,302.1z M111.1,292.1c-1,0-1.8,0.3-2.4,1
		c-0.6,0.7-1,1.6-1.1,2.9h6.5c0-1.2-0.3-2.2-0.8-2.8C112.7,292.4,112,292.1,111.1,292.1z"/>
	<path class="st3" d="M124.4,299.2c0,0.9-0.4,1.7-1.1,2.2c-0.7,0.5-1.7,0.8-3,0.8c-1.4,0-2.5-0.2-3.3-0.6v-1
		c1.1,0.5,2.2,0.8,3.3,0.8c1,0,1.8-0.2,2.4-0.5c0.5-0.3,0.8-0.8,0.8-1.4c0-0.5-0.2-1-0.6-1.3c-0.4-0.4-1.1-0.7-2.1-1.1
		c-1-0.4-1.8-0.7-2.2-1s-0.7-0.6-1-0.9s-0.3-0.8-0.3-1.3c0-0.8,0.3-1.4,1-1.9c0.7-0.5,1.6-0.7,2.8-0.7c1.1,0,2.2,0.2,3.2,0.6
		l-0.4,0.9c-1-0.4-2-0.6-2.9-0.6c-0.9,0-1.5,0.1-2,0.4c-0.5,0.3-0.8,0.7-0.8,1.2c0,0.5,0.2,1,0.6,1.3c0.4,0.3,1.1,0.7,2.3,1.1
		c0.9,0.3,1.6,0.6,2.1,0.9c0.4,0.3,0.8,0.6,1,0.9S124.4,298.7,124.4,299.2z"/>
	<path class="st3" d="M136.1,291.2c0.8,0,1.4,0.1,2,0.4c0.6,0.3,1,0.7,1.5,1.4h0.1c0-0.8-0.1-1.6-0.1-2.4v-3.8h0.9v15h-0.6l-0.2-1.6
		h-0.1c-0.8,1.2-1.9,1.8-3.4,1.8c-1.4,0-2.6-0.4-3.3-1.4c-0.8-0.9-1.1-2.2-1.1-3.9c0-1.8,0.4-3.2,1.1-4.2
		C133.6,291.7,134.7,291.2,136.1,291.2z M136.1,292.1c-1.1,0-2,0.4-2.6,1.2s-0.9,2-0.9,3.5c0,3,1.2,4.5,3.5,4.5c1.2,0,2.1-0.3,2.6-1
		c0.6-0.7,0.8-1.8,0.8-3.4v-0.2c0-1.6-0.3-2.8-0.8-3.5S137.3,292.1,136.1,292.1z"/>
	<path class="st3" d="M143.9,288.5c0-0.6,0.2-0.9,0.6-0.9c0.2,0,0.4,0.1,0.5,0.2c0.1,0.2,0.2,0.4,0.2,0.7c0,0.3-0.1,0.5-0.2,0.7
		c-0.1,0.2-0.3,0.3-0.5,0.3C144.1,289.5,143.9,289.1,143.9,288.5z M145,301.9h-1v-10.5h1V301.9z"/>
	<path class="st3" d="M152.6,291.2c0.4,0,0.9,0,1.4,0.1l-0.2,0.9c-0.4-0.1-0.9-0.2-1.4-0.2c-0.9,0-1.6,0.4-2.2,1.1s-0.9,1.7-0.9,2.9
		v5.8h-1v-10.5h0.8l0.1,1.9h0.1c0.4-0.8,0.9-1.3,1.4-1.6C151.3,291.4,151.9,291.2,152.6,291.2z"/>
	<path class="st3" d="M160.4,302.1c-1.5,0-2.7-0.5-3.6-1.4c-0.9-0.9-1.3-2.3-1.3-3.9c0-1.7,0.4-3,1.2-4c0.8-1,1.9-1.5,3.3-1.5
		c1.2,0,2.2,0.4,2.9,1.3c0.7,0.9,1.1,2,1.1,3.5v0.8h-7.6c0,1.4,0.3,2.5,1,3.3c0.7,0.8,1.6,1.1,2.8,1.1c0.6,0,1.1,0,1.6-0.1
		c0.5-0.1,1-0.3,1.7-0.5v0.9c-0.6,0.3-1.1,0.4-1.6,0.5C161.6,302.1,161,302.1,160.4,302.1z M160.1,292.1c-1,0-1.8,0.3-2.4,1
		c-0.6,0.7-1,1.6-1.1,2.9h6.5c0-1.2-0.3-2.2-0.8-2.8C161.8,292.4,161.1,292.1,160.1,292.1z"/>
	<path class="st3" d="M171.2,302.1c-1.5,0-2.7-0.5-3.5-1.4c-0.8-0.9-1.3-2.3-1.3-4c0-1.7,0.4-3.1,1.3-4.1c0.9-1,2.1-1.5,3.6-1.5
		c0.9,0,1.8,0.2,2.6,0.5l-0.3,0.8c-0.9-0.3-1.7-0.5-2.4-0.5c-1.3,0-2.3,0.4-2.9,1.2c-0.7,0.8-1,1.9-1,3.4c0,1.4,0.3,2.5,1,3.3
		c0.7,0.8,1.6,1.2,2.8,1.2c1,0,1.8-0.2,2.7-0.5v0.9C173.2,301.9,172.3,302.1,171.2,302.1z"/>
	<path class="st3" d="M179.2,301.3c0.6,0,1.1-0.1,1.6-0.2v0.8c-0.5,0.2-1,0.2-1.6,0.2c-0.9,0-1.6-0.2-2-0.7
		c-0.4-0.5-0.7-1.3-0.7-2.3v-6.8h-1.6v-0.6l1.6-0.4l0.5-2.4h0.5v2.5h3.1v0.8h-3.1v6.6c0,0.8,0.1,1.4,0.4,1.8
		C178.1,301.1,178.6,301.3,179.2,301.3z"/>
	<path class="st3" d="M182.9,288.5c0-0.6,0.2-0.9,0.6-0.9c0.2,0,0.4,0.1,0.5,0.2c0.1,0.2,0.2,0.4,0.2,0.7c0,0.3-0.1,0.5-0.2,0.7
		c-0.1,0.2-0.3,0.3-0.5,0.3C183.1,289.5,182.9,289.1,182.9,288.5z M184,301.9h-1v-10.5h1V301.9z"/>
	<path class="st3" d="M196.2,296.7c0,1.7-0.4,3-1.2,4c-0.8,1-2,1.4-3.4,1.4c-0.9,0-1.7-0.2-2.4-0.7c-0.7-0.4-1.2-1.1-1.6-1.9
		c-0.4-0.8-0.6-1.8-0.6-2.9c0-1.7,0.4-3,1.2-4c0.8-1,2-1.4,3.4-1.4c1.4,0,2.6,0.5,3.4,1.5C195.8,293.6,196.2,295,196.2,296.7z
		 M187.9,296.7c0,1.4,0.3,2.6,1,3.4c0.6,0.8,1.5,1.2,2.7,1.2c1.2,0,2.1-0.4,2.7-1.2c0.6-0.8,1-1.9,1-3.4c0-1.4-0.3-2.6-1-3.4
		s-1.5-1.2-2.7-1.2s-2,0.4-2.7,1.2S187.9,295.2,187.9,296.7z"/>
	<path class="st3" d="M206.4,301.9v-6.8c0-1.1-0.2-1.8-0.7-2.3s-1.1-0.7-2.1-0.7c-1.3,0-2.2,0.3-2.8,0.9c-0.6,0.6-0.9,1.7-0.9,3.1
		v5.8h-1v-10.5h0.8l0.2,1.4h0.1c0.7-1.1,1.9-1.6,3.6-1.6c2.4,0,3.6,1.3,3.6,3.8v6.9H206.4z"/>
	<path class="st3" d="M222.2,301.9l-0.2-1.7h-0.1c-0.5,0.7-1.1,1.2-1.6,1.4s-1.2,0.4-2,0.4c-1,0-1.8-0.3-2.4-0.8
		c-0.6-0.5-0.9-1.3-0.9-2.2c0-1,0.4-1.8,1.3-2.4c0.9-0.6,2.1-0.9,3.7-0.9l2-0.1v-0.7c0-1-0.2-1.7-0.6-2.3c-0.4-0.5-1.1-0.8-2-0.8
		c-1,0-2,0.3-3,0.8l-0.4-0.8c1.2-0.5,2.3-0.8,3.4-0.8c1.2,0,2,0.3,2.6,0.9c0.6,0.6,0.9,1.5,0.9,2.8v7H222.2z M218.4,301.2
		c1.1,0,2-0.3,2.6-1c0.6-0.6,1-1.5,1-2.7v-1l-1.8,0.1c-1.5,0.1-2.5,0.3-3.1,0.7s-0.9,1-0.9,1.8c0,0.7,0.2,1.2,0.6,1.5
		S217.6,301.2,218.4,301.2z"/>
	<path class="st3" d="M233.6,301.9v-6.8c0-1.1-0.2-1.8-0.7-2.3s-1.1-0.7-2.1-0.7c-1.3,0-2.2,0.3-2.8,0.9c-0.6,0.6-0.9,1.7-0.9,3.1
		v5.8h-1v-10.5h0.8l0.2,1.4h0.1c0.7-1.1,1.9-1.6,3.6-1.6c2.4,0,3.6,1.3,3.6,3.8v6.9H233.6z"/>
	<path class="st3" d="M241.8,291.2c0.8,0,1.4,0.1,2,0.4c0.6,0.3,1,0.7,1.5,1.4h0.1c0-0.8-0.1-1.6-0.1-2.4v-3.8h0.9v15h-0.6l-0.2-1.6
		h-0.1c-0.8,1.2-1.9,1.8-3.4,1.8c-1.4,0-2.6-0.4-3.3-1.4c-0.8-0.9-1.1-2.2-1.1-3.9c0-1.8,0.4-3.2,1.1-4.2
		C239.2,291.7,240.3,291.2,241.8,291.2z M241.8,292.1c-1.1,0-2,0.4-2.6,1.2s-0.9,2-0.9,3.5c0,3,1.2,4.5,3.5,4.5c1.2,0,2.1-0.3,2.6-1
		c0.6-0.7,0.8-1.8,0.8-3.4v-0.2c0-1.6-0.3-2.8-0.8-3.5S243,292.1,241.8,292.1z"/>
</g>
<g>
	<path class="st3" d="M52.5,316.2c0-0.6,0.2-0.9,0.6-0.9c0.2,0,0.4,0.1,0.5,0.2c0.1,0.2,0.2,0.4,0.2,0.7c0,0.3-0.1,0.5-0.2,0.7
		c-0.1,0.2-0.3,0.3-0.5,0.3C52.7,317.1,52.5,316.8,52.5,316.2z M53.6,329.6h-1v-10.5h1V329.6z"/>
	<path class="st3" d="M64.4,329.6v-6.8c0-1.1-0.2-1.8-0.7-2.3s-1.1-0.7-2.1-0.7c-1.3,0-2.2,0.3-2.8,0.9c-0.6,0.6-0.9,1.7-0.9,3.1
		v5.8h-1v-10.5h0.8l0.2,1.4h0.1c0.7-1.1,1.9-1.6,3.6-1.6c2.4,0,3.6,1.3,3.6,3.8v6.9H64.4z"/>
	<path class="st3" d="M75.3,326.8c0,0.9-0.4,1.7-1.1,2.2c-0.7,0.5-1.7,0.8-3,0.8c-1.4,0-2.5-0.2-3.3-0.6v-1c1.1,0.5,2.2,0.8,3.3,0.8
		c1,0,1.8-0.2,2.4-0.5c0.5-0.3,0.8-0.8,0.8-1.4c0-0.5-0.2-1-0.6-1.3c-0.4-0.4-1.1-0.7-2.1-1.1c-1-0.4-1.8-0.7-2.2-1s-0.7-0.6-1-0.9
		s-0.3-0.8-0.3-1.3c0-0.8,0.3-1.4,1-1.9c0.7-0.5,1.6-0.7,2.8-0.7c1.1,0,2.2,0.2,3.2,0.6l-0.4,0.9c-1-0.4-2-0.6-2.9-0.6
		c-0.9,0-1.5,0.1-2,0.4c-0.5,0.3-0.8,0.7-0.8,1.2c0,0.5,0.2,1,0.6,1.3c0.4,0.3,1.1,0.7,2.3,1.1c0.9,0.3,1.6,0.6,2.1,0.9
		c0.4,0.3,0.8,0.6,1,0.9S75.3,326.4,75.3,326.8z"/>
	<path class="st3" d="M82.4,329.8c-1.6,0-2.8-0.6-3.5-1.8h-0.1l0,0.8c0,0.5,0,1,0,1.6v4h-1v-15.2h0.8l0.2,1.5H79
		c0.7-1.1,1.9-1.7,3.5-1.7c1.4,0,2.5,0.5,3.2,1.4c0.7,0.9,1.1,2.3,1.1,4.1c0,1.7-0.4,3.1-1.2,4S83.8,329.8,82.4,329.8z M82.4,328.9
		c1.1,0,1.9-0.4,2.5-1.2s0.9-1.9,0.9-3.3c0-3.1-1.1-4.6-3.3-4.6c-1.2,0-2.1,0.3-2.7,1s-0.9,1.8-0.9,3.3v0.3c0,1.6,0.3,2.8,0.8,3.5
		C80.3,328.6,81.2,328.9,82.4,328.9z"/>
	<path class="st3" d="M89.6,316.2c0-0.6,0.2-0.9,0.6-0.9c0.2,0,0.4,0.1,0.5,0.2c0.1,0.2,0.2,0.4,0.2,0.7c0,0.3-0.1,0.5-0.2,0.7
		c-0.1,0.2-0.3,0.3-0.5,0.3C89.8,317.1,89.6,316.8,89.6,316.2z M90.7,329.6h-1v-10.5h1V329.6z"/>
	<path class="st3" d="M98.3,318.9c0.4,0,0.9,0,1.4,0.1l-0.2,0.9c-0.4-0.1-0.9-0.2-1.4-0.2c-0.9,0-1.6,0.4-2.2,1.1s-0.9,1.7-0.9,2.9
		v5.8h-1v-10.5H95l0.1,1.9h0.1c0.4-0.8,0.9-1.3,1.4-1.6C97,319,97.6,318.9,98.3,318.9z"/>
	<path class="st3" d="M106.1,329.8c-1.5,0-2.7-0.5-3.6-1.4c-0.9-0.9-1.3-2.3-1.3-3.9c0-1.7,0.4-3,1.2-4c0.8-1,1.9-1.5,3.3-1.5
		c1.2,0,2.2,0.4,2.9,1.3c0.7,0.9,1.1,2,1.1,3.5v0.8h-7.6c0,1.4,0.3,2.5,1,3.3c0.7,0.8,1.6,1.1,2.8,1.1c0.6,0,1.1,0,1.6-0.1
		c0.5-0.1,1-0.3,1.7-0.5v0.9c-0.6,0.3-1.1,0.4-1.6,0.5C107.3,329.7,106.7,329.8,106.1,329.8z M105.8,319.7c-1,0-1.8,0.3-2.4,1
		c-0.6,0.7-1,1.6-1.1,2.9h6.5c0-1.2-0.3-2.2-0.8-2.8C107.5,320.1,106.8,319.7,105.8,319.7z"/>
	<path class="st3" d="M117,324.6v-0.8h4.6v0.8H117z"/>
	<path class="st3" d="M132.1,328.9c0.6,0,1.1-0.1,1.6-0.2v0.8c-0.5,0.2-1,0.2-1.6,0.2c-0.9,0-1.6-0.2-2-0.7
		c-0.4-0.5-0.7-1.3-0.7-2.3v-6.8h-1.6v-0.6l1.6-0.4l0.5-2.4h0.5v2.5h3.1v0.8h-3.1v6.6c0,0.8,0.1,1.4,0.4,1.8
		C131,328.7,131.5,328.9,132.1,328.9z"/>
	<path class="st3" d="M143.3,329.6v-6.8c0-1.1-0.2-1.8-0.7-2.3s-1.1-0.7-2.1-0.7c-1.3,0-2.2,0.3-2.8,0.9c-0.6,0.6-0.9,1.7-0.9,3.1
		v5.8h-1v-15h1v4.8l0,1.3h0.1c0.4-0.6,0.9-1.1,1.5-1.4c0.6-0.3,1.3-0.4,2.2-0.4c2.4,0,3.6,1.3,3.6,3.8v6.9H143.3z"/>
	<path class="st3" d="M151.8,329.8c-1.5,0-2.7-0.5-3.6-1.4c-0.9-0.9-1.3-2.3-1.3-3.9c0-1.7,0.4-3,1.2-4c0.8-1,1.9-1.5,3.3-1.5
		c1.2,0,2.2,0.4,2.9,1.3c0.7,0.9,1.1,2,1.1,3.5v0.8H148c0,1.4,0.3,2.5,1,3.3c0.7,0.8,1.6,1.1,2.8,1.1c0.6,0,1.1,0,1.6-0.1
		c0.5-0.1,1-0.3,1.7-0.5v0.9c-0.6,0.3-1.1,0.4-1.6,0.5C153,329.7,152.4,329.8,151.8,329.8z M151.5,319.7c-1,0-1.8,0.3-2.4,1
		c-0.6,0.7-1,1.6-1.1,2.9h6.5c0-1.2-0.3-2.2-0.8-2.8C153.2,320.1,152.5,319.7,151.5,319.7z"/>
</g>
<g>
	<path class="st3" d="M163.1,320.3l0-0.2c0.3-0.6,0.6-1.4,1.1-2.2c0.5-0.8,1-1.6,1.6-2.4h0.7c-0.4,0.7-0.8,1.5-1.2,2.3
		s-0.7,1.7-1,2.5H163.1z"/>
	<path class="st3" d="M172.8,329.6l-0.6-6.6c-0.1-1.4-0.1-2.3-0.1-2.6H172c-0.2,0.6-0.7,1.5-1.4,2.8l-3.4,6.4h-1.1l-0.2-10.5h0.9
		l0.1,7.9l0,1.5h0.1c0.4-0.9,0.9-1.8,1.4-2.9l3.6-6.6h0.7l0.6,6.6c0.1,0.9,0.1,1.9,0.1,2.9h0.1l0.2-0.6l1-2.3l3.1-6.6h0.9l-4.9,10.5
		H172.8z"/>
	<path class="st3" d="M185.5,329.6l1.4-6.7c0.1-0.6,0.2-1.1,0.2-1.5c0-0.5-0.1-0.9-0.4-1.2c-0.3-0.3-0.7-0.4-1.3-0.4
		c-0.7,0-1.4,0.2-2,0.6s-1.2,1-1.6,1.8c-0.4,0.8-0.8,1.7-1,2.8l-1,4.6h-0.9l3.2-15h0.9l-0.8,4c-0.3,1.3-0.5,2.2-0.6,2.7h0.1
		c0.5-0.7,1.1-1.3,1.8-1.7s1.4-0.6,2.2-0.6c0.8,0,1.4,0.2,1.9,0.6c0.4,0.4,0.7,1,0.7,1.8c0,0.5-0.1,1-0.2,1.8l-1.4,6.5H185.5z"/>
	<path class="st3" d="M195.5,318.9c1.5,0,2.4,0.7,2.7,2.1h0.1l0.6-1.9h0.8l-2.2,10.5h-0.8l0.4-2.6h-0.1c-0.5,0.9-1.1,1.6-1.8,2.1
		c-0.7,0.5-1.4,0.7-2.3,0.7c-1.8,0-2.7-1.2-2.7-3.6c0-1.3,0.2-2.5,0.7-3.6c0.5-1.2,1.1-2,1.9-2.7
		C193.6,319.2,194.5,318.9,195.5,318.9z M193.1,328.9c0.6,0,1.1-0.2,1.7-0.6c0.6-0.4,1.1-0.9,1.5-1.6c0.5-0.7,0.8-1.4,1-2.2
		c0.2-0.8,0.4-1.5,0.4-2.1c0-0.5-0.1-1-0.3-1.4c-0.2-0.4-0.4-0.7-0.7-1c-0.3-0.2-0.7-0.4-1.2-0.4c-0.8,0-1.5,0.3-2.2,0.8
		c-0.6,0.5-1.2,1.3-1.6,2.4c-0.4,1.1-0.6,2.1-0.6,3.1c0,1,0.2,1.7,0.5,2.2C191.9,328.7,192.4,328.9,193.1,328.9z"/>
	<path class="st3" d="M206.8,319.1l-0.2,0.8h-2.7l-1.3,6.1c-0.1,0.6-0.2,1.2-0.2,1.6c0,0.9,0.4,1.3,1.2,1.3c0.4,0,0.9-0.1,1.5-0.3
		v0.8c-0.6,0.2-1.2,0.3-1.6,0.3c-0.6,0-1.1-0.2-1.5-0.5c-0.3-0.4-0.5-0.9-0.5-1.5c0-0.5,0.1-1.1,0.3-2l1.2-5.9h-1.8l0.1-0.6l1.8-0.2
		l0.9-2.4h0.5l-0.5,2.5H206.8z"/>
	<path class="st3" d="M210.6,315.5l0,0.2c-0.3,0.7-0.7,1.4-1.1,2.3s-1,1.6-1.5,2.3h-0.7c0.4-0.7,0.8-1.5,1.2-2.3
		c0.4-0.9,0.7-1.7,1-2.5H210.6z"/>
</g>
<g>
	<path class="st3" d="M214,319.1h1l2.2,5.9c0.7,1.8,1.1,3,1.3,3.7h0.1c0.3-0.8,0.7-2.1,1.3-3.7l2.2-5.8h1l-4.7,12.2
		c-0.4,1-0.7,1.7-1,2c-0.3,0.3-0.6,0.6-0.9,0.8c-0.3,0.2-0.8,0.3-1.2,0.3c-0.4,0-0.8-0.1-1.2-0.2v-0.8c0.4,0.1,0.8,0.2,1.2,0.2
		c0.3,0,0.6-0.1,0.9-0.2c0.3-0.2,0.5-0.4,0.7-0.7c0.2-0.3,0.4-0.8,0.7-1.5c0.3-0.7,0.4-1.2,0.5-1.4L214,319.1z"/>
	<path class="st3" d="M233.5,324.3c0,1.7-0.4,3-1.2,4c-0.8,1-2,1.4-3.4,1.4c-0.9,0-1.7-0.2-2.4-0.7c-0.7-0.4-1.2-1.1-1.6-1.9
		c-0.4-0.8-0.6-1.8-0.6-2.9c0-1.7,0.4-3,1.2-4c0.8-1,2-1.4,3.4-1.4c1.4,0,2.6,0.5,3.4,1.5C233.1,321.3,233.5,322.6,233.5,324.3z
		 M225.2,324.3c0,1.4,0.3,2.6,1,3.4c0.6,0.8,1.5,1.2,2.7,1.2c1.2,0,2.1-0.4,2.7-1.2c0.6-0.8,1-1.9,1-3.4c0-1.4-0.3-2.6-1-3.4
		s-1.5-1.2-2.7-1.2s-2,0.4-2.7,1.2S225.2,322.9,225.2,324.3z"/>
	<path class="st3" d="M237.3,319.1v6.8c0,1.1,0.2,1.8,0.7,2.3s1.1,0.7,2.1,0.7c1.2,0,2.2-0.3,2.8-0.9c0.6-0.6,0.9-1.7,0.9-3.1v-5.8
		h0.9v10.5h-0.8l-0.2-1.4h-0.1c-0.7,1.1-1.9,1.6-3.6,1.6c-2.4,0-3.6-1.3-3.6-3.8v-6.8H237.3z"/>
</g>
<g>
	<path class="st3" d="M87.3,357.2l-2.3-7c-0.1-0.5-0.3-1.2-0.6-2.1h-0.1l-0.2,0.7l-0.4,1.4l-2.3,7h-0.9l-3-10.5h1l1.7,6.1
		c0.4,1.5,0.6,2.6,0.8,3.3H81c0.4-1.5,0.7-2.5,0.8-3l2.2-6.4h0.9l2.1,6.4c0.5,1.5,0.7,2.5,0.8,3h0.1c0.1-0.4,0.3-1.5,0.8-3.4l1.6-6
		h1l-2.8,10.5H87.3z"/>
	<path class="st3" d="M99.6,357.2l-0.2-1.7h-0.1c-0.5,0.7-1.1,1.2-1.6,1.4s-1.2,0.4-2,0.4c-1,0-1.8-0.3-2.4-0.8
		c-0.6-0.5-0.9-1.3-0.9-2.2c0-1,0.4-1.8,1.3-2.4c0.9-0.6,2.1-0.9,3.7-0.9l2-0.1v-0.7c0-1-0.2-1.7-0.6-2.3c-0.4-0.5-1.1-0.8-2-0.8
		c-1,0-2,0.3-3,0.8l-0.4-0.8c1.2-0.5,2.3-0.8,3.4-0.8c1.2,0,2,0.3,2.6,0.9c0.6,0.6,0.9,1.5,0.9,2.8v7H99.6z M95.7,356.5
		c1.1,0,2-0.3,2.6-1c0.6-0.6,1-1.5,1-2.7v-1l-1.8,0.1c-1.5,0.1-2.5,0.3-3.1,0.7s-0.9,1-0.9,1.8c0,0.7,0.2,1.2,0.6,1.5
		S95,356.5,95.7,356.5z"/>
	<path class="st3" d="M111,357.2v-6.8c0-1.1-0.2-1.8-0.7-2.3s-1.1-0.7-2.1-0.7c-1.3,0-2.2,0.3-2.8,0.9c-0.6,0.6-0.9,1.7-0.9,3.1v5.8
		h-1v-10.5h0.8l0.2,1.4h0.1c0.7-1.1,1.9-1.6,3.6-1.6c2.4,0,3.6,1.3,3.6,3.8v6.9H111z"/>
	<path class="st3" d="M118.1,356.6c0.6,0,1.1-0.1,1.6-0.2v0.8c-0.5,0.2-1,0.2-1.6,0.2c-0.9,0-1.6-0.2-2-0.7
		c-0.4-0.5-0.7-1.3-0.7-2.3v-6.8h-1.6V347l1.6-0.4l0.5-2.4h0.5v2.5h3.1v0.8h-3.1v6.6c0,0.8,0.1,1.4,0.4,1.8
		C117.1,356.4,117.5,356.6,118.1,356.6z"/>
	<path class="st3" d="M129.8,356.6c0.6,0,1.1-0.1,1.6-0.2v0.8c-0.5,0.2-1,0.2-1.6,0.2c-0.9,0-1.6-0.2-2-0.7
		c-0.4-0.5-0.7-1.3-0.7-2.3v-6.8h-1.6V347l1.6-0.4l0.5-2.4h0.5v2.5h3.1v0.8h-3.1v6.6c0,0.8,0.1,1.4,0.4,1.8
		C128.8,356.4,129.2,356.6,129.8,356.6z"/>
	<path class="st3" d="M142.4,352c0,1.7-0.4,3-1.2,4c-0.8,1-2,1.4-3.4,1.4c-0.9,0-1.7-0.2-2.4-0.7c-0.7-0.4-1.2-1.1-1.6-1.9
		c-0.4-0.8-0.6-1.8-0.6-2.9c0-1.7,0.4-3,1.2-4c0.8-1,2-1.4,3.4-1.4c1.4,0,2.6,0.5,3.4,1.5C142,349,142.4,350.3,142.4,352z
		 M134.1,352c0,1.4,0.3,2.6,1,3.4c0.6,0.8,1.5,1.2,2.7,1.2c1.2,0,2.1-0.4,2.7-1.2c0.6-0.8,1-1.9,1-3.4c0-1.4-0.3-2.6-1-3.4
		s-1.5-1.2-2.7-1.2s-2,0.4-2.7,1.2S134.1,350.5,134.1,352z"/>
	<path class="st3" d="M156.8,357.2l-0.2-1.7h-0.1c-0.5,0.7-1.1,1.2-1.6,1.4s-1.2,0.4-2,0.4c-1,0-1.8-0.3-2.4-0.8
		c-0.6-0.5-0.9-1.3-0.9-2.2c0-1,0.4-1.8,1.3-2.4c0.9-0.6,2.1-0.9,3.7-0.9l2-0.1v-0.7c0-1-0.2-1.7-0.6-2.3c-0.4-0.5-1.1-0.8-2-0.8
		c-1,0-2,0.3-3,0.8l-0.4-0.8c1.2-0.5,2.3-0.8,3.4-0.8c1.2,0,2,0.3,2.6,0.9c0.6,0.6,0.9,1.5,0.9,2.8v7H156.8z M152.9,356.5
		c1.1,0,2-0.3,2.6-1c0.6-0.6,1-1.5,1-2.7v-1l-1.8,0.1c-1.5,0.1-2.5,0.3-3.1,0.7s-0.9,1-0.9,1.8c0,0.7,0.2,1.2,0.6,1.5
		S152.2,356.5,152.9,356.5z"/>
	<path class="st3" d="M165,357.4c-1.5,0-2.7-0.5-3.5-1.4c-0.8-0.9-1.3-2.3-1.3-4c0-1.7,0.4-3.1,1.3-4.1c0.9-1,2.1-1.5,3.6-1.5
		c0.9,0,1.8,0.2,2.6,0.5l-0.3,0.8c-0.9-0.3-1.7-0.5-2.4-0.5c-1.3,0-2.3,0.4-2.9,1.2c-0.7,0.8-1,1.9-1,3.4c0,1.4,0.3,2.5,1,3.3
		c0.7,0.8,1.6,1.2,2.8,1.2c1,0,1.8-0.2,2.7-0.5v0.9C167,357.2,166.1,357.4,165,357.4z"/>
	<path class="st3" d="M177.6,357.2v-6.8c0-1.1-0.2-1.8-0.7-2.3s-1.1-0.7-2.1-0.7c-1.3,0-2.2,0.3-2.8,0.9c-0.6,0.6-0.9,1.7-0.9,3.1
		v5.8h-1v-15h1v4.8l0,1.3h0.1c0.4-0.6,0.9-1.1,1.5-1.4c0.6-0.3,1.3-0.4,2.2-0.4c2.4,0,3.6,1.3,3.6,3.8v6.9H177.6z"/>
	<path class="st3" d="M181.8,343.8c0-0.6,0.2-0.9,0.6-0.9c0.2,0,0.4,0.1,0.5,0.2c0.1,0.2,0.2,0.4,0.2,0.7c0,0.3-0.1,0.5-0.2,0.7
		c-0.1,0.2-0.3,0.3-0.5,0.3C182,344.8,181.8,344.4,181.8,343.8z M182.9,357.2h-1v-10.5h1V357.2z"/>
	<path class="st3" d="M190.6,357.4c-1.5,0-2.7-0.5-3.6-1.4c-0.9-0.9-1.3-2.3-1.3-3.9c0-1.7,0.4-3,1.2-4c0.8-1,1.9-1.5,3.3-1.5
		c1.2,0,2.2,0.4,2.9,1.3c0.7,0.9,1.1,2,1.1,3.5v0.8h-7.6c0,1.4,0.3,2.5,1,3.3c0.7,0.8,1.6,1.1,2.8,1.1c0.6,0,1.1,0,1.6-0.1
		c0.5-0.1,1-0.3,1.7-0.5v0.9c-0.6,0.3-1.1,0.4-1.6,0.5C191.8,357.4,191.2,357.4,190.6,357.4z M190.3,347.4c-1,0-1.8,0.3-2.4,1
		c-0.6,0.7-1,1.6-1.1,2.9h6.5c0-1.2-0.3-2.2-0.8-2.8C192,347.7,191.2,347.4,190.3,347.4z"/>
	<path class="st3" d="M199.5,357.2l-4.1-10.5h1l2.7,7.1c0.4,0.9,0.6,1.7,0.8,2.4h0.1c0.3-0.9,0.5-1.7,0.8-2.4l2.7-7.1h1l-4.1,10.5
		H199.5z"/>
	<path class="st3" d="M210.5,357.4c-1.5,0-2.7-0.5-3.6-1.4c-0.9-0.9-1.3-2.3-1.3-3.9c0-1.7,0.4-3,1.2-4c0.8-1,1.9-1.5,3.3-1.5
		c1.2,0,2.2,0.4,2.9,1.3c0.7,0.9,1.1,2,1.1,3.5v0.8h-7.6c0,1.4,0.3,2.5,1,3.3c0.7,0.8,1.6,1.1,2.8,1.1c0.6,0,1.1,0,1.6-0.1
		c0.5-0.1,1-0.3,1.7-0.5v0.9c-0.6,0.3-1.1,0.4-1.6,0.5C211.7,357.4,211.1,357.4,210.5,357.4z M210.2,347.4c-1,0-1.8,0.3-2.4,1
		c-0.6,0.7-1,1.6-1.1,2.9h6.5c0-1.2-0.3-2.2-0.8-2.8C211.9,347.7,211.2,347.4,210.2,347.4z"/>
	<path class="st3" d="M216.9,356.5c0-0.6,0.3-0.9,0.8-0.9c0.5,0,0.8,0.3,0.8,0.9c0,0.6-0.3,0.9-0.8,0.9
		C217.2,357.4,216.9,357.1,216.9,356.5z"/>
</g>
<g>
	<path class="st3" d="M328.8,301.9h-1v-13.2h-4.6v-0.9h10.2v0.9h-4.6V301.9z"/>
	<path class="st3" d="M342.5,301.9v-6.8c0-1.1-0.2-1.8-0.7-2.3s-1.1-0.7-2.1-0.7c-1.3,0-2.2,0.3-2.8,0.9c-0.6,0.6-0.9,1.7-0.9,3.1
		v5.8h-1v-15h1v4.8l0,1.3h0.1c0.4-0.6,0.9-1.1,1.5-1.4c0.6-0.3,1.3-0.4,2.2-0.4c2.4,0,3.6,1.3,3.6,3.8v6.9H342.5z"/>
	<path class="st3" d="M351.1,302.1c-1.5,0-2.7-0.5-3.6-1.4c-0.9-0.9-1.3-2.3-1.3-3.9c0-1.7,0.4-3,1.2-4c0.8-1,1.9-1.5,3.3-1.5
		c1.2,0,2.2,0.4,2.9,1.3c0.7,0.9,1.1,2,1.1,3.5v0.8h-7.6c0,1.4,0.3,2.5,1,3.3c0.7,0.8,1.6,1.1,2.8,1.1c0.6,0,1.1,0,1.6-0.1
		c0.5-0.1,1-0.3,1.7-0.5v0.9c-0.6,0.3-1.1,0.4-1.6,0.5C352.3,302.1,351.7,302.1,351.1,302.1z M350.8,292.1c-1,0-1.8,0.3-2.4,1
		c-0.6,0.7-1,1.6-1.1,2.9h6.5c0-1.2-0.3-2.2-0.8-2.8C352.5,292.4,351.8,292.1,350.8,292.1z"/>
</g>
<g>
	<path class="st3" d="M362.4,292.6l0-0.2c0.3-0.6,0.6-1.4,1.1-2.2c0.5-0.8,1-1.6,1.6-2.4h0.7c-0.4,0.7-0.8,1.5-1.2,2.3
		s-0.7,1.7-1,2.5H362.4z"/>
	<path class="st3" d="M370.8,301.9l1.4-6.5c0.2-0.8,0.2-1.3,0.2-1.6c0-1.2-0.5-1.8-1.5-1.8c-0.7,0-1.3,0.2-1.9,0.7s-1.1,1-1.5,1.8
		s-0.7,1.7-1,2.8l-1,4.6h-0.9l2.2-10.5h0.8l-0.3,2h0.1c0.5-0.7,1.1-1.3,1.8-1.6c0.7-0.4,1.3-0.5,2-0.5c0.7,0,1.2,0.2,1.6,0.6
		c0.4,0.4,0.6,1.1,0.6,1.9h0.1c0.5-0.8,1.1-1.5,1.7-1.9c0.7-0.4,1.4-0.6,2.1-0.6c0.8,0,1.3,0.2,1.8,0.6s0.6,1,0.6,1.7
		c0,0.2,0,0.4,0,0.5s-0.1,0.6-0.2,1.2l-1.5,6.7h-1l1.4-6.6c0.2-0.8,0.2-1.3,0.2-1.7c0-0.5-0.1-0.9-0.4-1.2c-0.3-0.3-0.7-0.4-1.1-0.4
		c-1,0-1.9,0.4-2.7,1.3c-0.8,0.9-1.3,2-1.6,3.5l-1.1,5H370.8z"/>
	<path class="st3" d="M385.4,302.1c-1.1,0-2-0.4-2.6-1.1s-0.9-1.7-0.9-2.9c0-1.2,0.2-2.3,0.7-3.3s1.1-1.9,1.9-2.5
		c0.8-0.6,1.7-0.9,2.6-0.9c0.7,0,1.3,0.2,1.8,0.6c0.4,0.4,0.7,0.9,0.7,1.6c0,1.2-0.5,2.1-1.6,2.7s-2.6,0.9-4.7,0.9h-0.3
		c0,0.3-0.1,0.6-0.1,0.9c0,1.1,0.2,1.9,0.7,2.4c0.5,0.6,1.2,0.8,2.1,0.8c0.8,0,1.7-0.2,2.7-0.7v0.9
		C387.4,301.9,386.4,302.1,385.4,302.1z M386.9,292.1c-0.8,0-1.6,0.4-2.3,1.1c-0.7,0.7-1.2,1.7-1.6,3h0.5c3.3,0,5-0.9,5-2.6
		c0-0.4-0.1-0.8-0.4-1.1S387.4,292.1,386.9,292.1z"/>
	<path class="st3" d="M396.1,291.3c1.5,0,2.4,0.7,2.7,2.1h0.1l0.6-1.9h0.8l-2.2,10.5h-0.8l0.4-2.6h-0.1c-0.5,0.9-1.1,1.6-1.8,2.1
		c-0.7,0.5-1.4,0.7-2.3,0.7c-1.8,0-2.7-1.2-2.7-3.6c0-1.3,0.2-2.5,0.7-3.6c0.5-1.2,1.1-2,1.9-2.7
		C394.2,291.6,395.1,291.3,396.1,291.3z M393.7,301.2c0.6,0,1.1-0.2,1.7-0.6c0.6-0.4,1.1-0.9,1.5-1.6c0.5-0.7,0.8-1.4,1-2.2
		c0.2-0.8,0.4-1.5,0.4-2.1c0-0.5-0.1-1-0.3-1.4c-0.2-0.4-0.4-0.7-0.7-1c-0.3-0.2-0.7-0.4-1.2-0.4c-0.8,0-1.5,0.3-2.2,0.8
		c-0.6,0.5-1.2,1.3-1.6,2.4c-0.4,1.1-0.6,2.1-0.6,3.1c0,1,0.2,1.7,0.5,2.2C392.6,301,393.1,301.2,393.7,301.2z"/>
	<path class="st3" d="M407.6,299.1c0,0.9-0.3,1.7-1,2.2c-0.7,0.5-1.6,0.8-2.7,0.8c-1.1,0-2.1-0.2-2.9-0.7v-1c0.5,0.3,1,0.5,1.5,0.7
		c0.5,0.2,1,0.2,1.4,0.2c0.9,0,1.6-0.2,2-0.6s0.7-0.9,0.7-1.6c0-0.3,0-0.5-0.1-0.7c-0.1-0.2-0.3-0.4-0.5-0.6
		c-0.2-0.2-0.6-0.5-1.3-0.8c-1-0.5-1.6-1-1.9-1.4s-0.5-0.9-0.5-1.5c0-0.8,0.3-1.5,1-2c0.6-0.5,1.5-0.8,2.5-0.8c0.5,0,1,0.1,1.5,0.2
		c0.5,0.1,1,0.3,1.4,0.4l-0.3,0.8c-0.9-0.4-1.7-0.6-2.5-0.6c-0.7,0-1.3,0.2-1.8,0.5s-0.7,0.8-0.7,1.3c0,0.4,0.1,0.6,0.2,0.8
		c0.1,0.2,0.3,0.4,0.6,0.7c0.3,0.2,0.7,0.5,1.2,0.7c0.7,0.4,1.3,0.7,1.6,1c0.3,0.3,0.5,0.5,0.7,0.8
		C407.5,298.3,407.6,298.7,407.6,299.1z"/>
	<path class="st3" d="M412.4,291.4l-1.5,6.7c-0.1,0.7-0.2,1.2-0.2,1.5c0,0.5,0.2,0.9,0.5,1.1c0.3,0.3,0.8,0.4,1.3,0.4
		c0.7,0,1.4-0.2,2-0.6c0.6-0.4,1.2-1,1.6-1.8c0.4-0.8,0.7-1.7,1-2.7l1-4.7h0.9l-2.2,10.5H416l0.3-2h-0.1c-1.1,1.4-2.4,2.1-3.9,2.1
		c-0.8,0-1.5-0.2-1.9-0.6c-0.4-0.4-0.7-1-0.7-1.7c0-0.4,0.1-0.9,0.2-1.6l1.4-6.7H412.4z"/>
	<path class="st3" d="M426.6,291.2c0.4,0,0.8,0,1.2,0.1l-0.2,0.9c-0.3-0.1-0.7-0.1-1.1-0.1c-0.6,0-1.2,0.2-1.7,0.6
		c-0.5,0.4-1,1-1.5,1.9c-0.4,0.8-0.8,1.7-1,2.7l-1,4.6h-0.9l2.2-10.5h0.8l-0.3,2h0.1c0.5-0.6,0.9-1,1.2-1.3c0.3-0.3,0.7-0.5,1-0.6
		S426.2,291.2,426.6,291.2z"/>
	<path class="st3" d="M431.5,302.1c-1.1,0-2-0.4-2.6-1.1s-0.9-1.7-0.9-2.9c0-1.2,0.2-2.3,0.7-3.3s1.1-1.9,1.9-2.5
		c0.8-0.6,1.7-0.9,2.6-0.9c0.7,0,1.3,0.2,1.8,0.6c0.4,0.4,0.7,0.9,0.7,1.6c0,1.2-0.5,2.1-1.6,2.7s-2.6,0.9-4.7,0.9H429
		c0,0.3-0.1,0.6-0.1,0.9c0,1.1,0.2,1.9,0.7,2.4c0.5,0.6,1.2,0.8,2.1,0.8c0.8,0,1.7-0.2,2.7-0.7v0.9
		C433.5,301.9,432.5,302.1,431.5,302.1z M433.1,292.1c-0.8,0-1.6,0.4-2.3,1.1c-0.7,0.7-1.2,1.7-1.6,3h0.5c3.3,0,5-0.9,5-2.6
		c0-0.4-0.1-0.8-0.4-1.1S433.5,292.1,433.1,292.1z"/>
	<path class="st3" d="M440.5,287.8l0,0.2c-0.3,0.7-0.7,1.4-1.1,2.3s-1,1.6-1.5,2.3h-0.7c0.4-0.7,0.8-1.5,1.2-2.3
		c0.4-0.9,0.7-1.7,1-2.5H440.5z"/>
</g>
<g>
	<path class="st3" d="M452.1,301.9l-0.2-1.7h-0.1c-0.5,0.7-1.1,1.2-1.6,1.4s-1.2,0.4-2,0.4c-1,0-1.8-0.3-2.4-0.8
		c-0.6-0.5-0.9-1.3-0.9-2.2c0-1,0.4-1.8,1.3-2.4c0.9-0.6,2.1-0.9,3.7-0.9l2-0.1v-0.7c0-1-0.2-1.7-0.6-2.3c-0.4-0.5-1.1-0.8-2-0.8
		c-1,0-2,0.3-3,0.8l-0.4-0.8c1.2-0.5,2.3-0.8,3.4-0.8c1.2,0,2,0.3,2.6,0.9c0.6,0.6,0.9,1.5,0.9,2.8v7H452.1z M448.2,301.2
		c1.1,0,2-0.3,2.6-1c0.6-0.6,1-1.5,1-2.7v-1l-1.8,0.1c-1.5,0.1-2.5,0.3-3.1,0.7s-0.9,1-0.9,1.8c0,0.7,0.2,1.2,0.6,1.5
		S447.5,301.2,448.2,301.2z"/>
	<path class="st3" d="M463.5,301.9v-6.8c0-1.1-0.2-1.8-0.7-2.3s-1.1-0.7-2.1-0.7c-1.3,0-2.2,0.3-2.8,0.9c-0.6,0.6-0.9,1.7-0.9,3.1
		v5.8h-1v-10.5h0.8l0.2,1.4h0.1c0.7-1.1,1.9-1.6,3.6-1.6c2.4,0,3.6,1.3,3.6,3.8v6.9H463.5z"/>
	<path class="st3" d="M471.6,291.2c0.8,0,1.4,0.1,2,0.4c0.6,0.3,1,0.7,1.5,1.4h0.1c0-0.8-0.1-1.6-0.1-2.4v-3.8h0.9v15h-0.6l-0.2-1.6
		h-0.1c-0.8,1.2-1.9,1.8-3.4,1.8c-1.4,0-2.6-0.4-3.3-1.4c-0.8-0.9-1.1-2.2-1.1-3.9c0-1.8,0.4-3.2,1.1-4.2
		C469.1,291.7,470.2,291.2,471.6,291.2z M471.6,292.1c-1.1,0-2,0.4-2.6,1.2s-0.9,2-0.9,3.5c0,3,1.2,4.5,3.5,4.5c1.2,0,2.1-0.3,2.6-1
		c0.6-0.7,0.8-1.8,0.8-3.4v-0.2c0-1.6-0.3-2.8-0.8-3.5S472.9,292.1,471.6,292.1z"/>
</g>
<g>
	<path class="st3" d="M484.2,292.6l0-0.2c0.3-0.6,0.6-1.4,1.1-2.2c0.5-0.8,1-1.6,1.6-2.4h0.7c-0.4,0.7-0.8,1.5-1.2,2.3
		s-0.7,1.7-1,2.5H484.2z"/>
	<path class="st3" d="M492.5,291.4l-0.2,0.8h-2.7l-1.3,6.1c-0.1,0.6-0.2,1.2-0.2,1.6c0,0.9,0.4,1.3,1.2,1.3c0.4,0,0.9-0.1,1.5-0.3
		v0.8c-0.6,0.2-1.2,0.3-1.6,0.3c-0.6,0-1.1-0.2-1.5-0.5c-0.3-0.4-0.5-0.9-0.5-1.5c0-0.5,0.1-1.1,0.3-2l1.2-5.9h-1.8l0.1-0.6l1.8-0.2
		l0.9-2.4h0.5l-0.5,2.5H492.5z"/>
	<path class="st3" d="M498.1,291.3c1.5,0,2.4,0.7,2.7,2.1h0.1l0.6-1.9h0.8l-2.2,10.5h-0.8l0.4-2.6h-0.1c-0.5,0.9-1.1,1.6-1.8,2.1
		c-0.7,0.5-1.4,0.7-2.3,0.7c-1.8,0-2.7-1.2-2.7-3.6c0-1.3,0.2-2.5,0.7-3.6c0.5-1.2,1.1-2,1.9-2.7
		C496.2,291.6,497.1,291.3,498.1,291.3z M495.7,301.2c0.6,0,1.1-0.2,1.7-0.6c0.6-0.4,1.1-0.9,1.5-1.6c0.5-0.7,0.8-1.4,1-2.2
		c0.2-0.8,0.4-1.5,0.4-2.1c0-0.5-0.1-1-0.3-1.4c-0.2-0.4-0.4-0.7-0.7-1c-0.3-0.2-0.7-0.4-1.2-0.4c-0.8,0-1.5,0.3-2.2,0.8
		c-0.6,0.5-1.2,1.3-1.6,2.4c-0.4,1.1-0.6,2.1-0.6,3.1c0,1,0.2,1.7,0.5,2.2C494.5,301,495,301.2,495.7,301.2z"/>
	<path class="st3" d="M509.6,291.2c0.4,0,0.8,0,1.2,0.1l-0.2,0.9c-0.3-0.1-0.7-0.1-1.1-0.1c-0.6,0-1.2,0.2-1.7,0.6
		c-0.5,0.4-1,1-1.5,1.9c-0.4,0.8-0.8,1.7-1,2.7l-1,4.6h-0.9l2.2-10.5h0.8l-0.3,2h0.1c0.5-0.6,0.9-1,1.2-1.3c0.3-0.3,0.7-0.5,1-0.6
		S509.1,291.2,509.6,291.2z"/>
	<path class="st3" d="M520.6,291.4l-0.2,0.8l-2.3,0.1c0.2,0.2,0.3,0.5,0.4,0.8c0.1,0.4,0.2,0.7,0.2,1.1c0,0.7-0.2,1.4-0.5,2
		c-0.4,0.6-0.8,1.1-1.4,1.4s-1.3,0.5-2.1,0.5c-0.4,0-0.7,0-0.7-0.1c-0.5,0.2-0.9,0.4-1.2,0.7c-0.3,0.3-0.4,0.5-0.4,0.8
		c0,0.3,0.1,0.5,0.3,0.6c0.2,0.2,0.6,0.3,1.1,0.3l1.2,0.1c2.2,0.2,3.3,1,3.3,2.5c0,0.7-0.2,1.4-0.6,1.9c-0.4,0.5-1,1-1.8,1.3
		c-0.8,0.3-1.7,0.4-2.8,0.4c-1.2,0-2.1-0.2-2.8-0.7s-1-1.1-1-2c0-1.5,1-2.6,3-3.2c-0.5-0.3-0.8-0.7-0.8-1.2c0-0.8,0.6-1.4,1.8-1.9
		c-0.5-0.2-0.8-0.6-1.1-1c-0.3-0.4-0.4-1-0.4-1.5c0-0.7,0.2-1.4,0.5-2c0.3-0.6,0.8-1.1,1.4-1.4s1.3-0.5,2-0.5c0.4,0,0.9,0.1,1.4,0.2
		H520.6z M510.1,303.9c0,0.6,0.3,1.1,0.8,1.4c0.5,0.3,1.2,0.5,2.2,0.5c1.3,0,2.3-0.2,3.1-0.7c0.7-0.5,1.1-1.1,1.1-2
		c0-0.5-0.2-1-0.6-1.3c-0.4-0.3-1.1-0.5-2.1-0.6l-1.5-0.1c-1,0.3-1.7,0.7-2.2,1.1C510.3,302.7,510.1,303.3,510.1,303.9z
		 M512.7,295.1c0,0.7,0.2,1.3,0.6,1.6c0.4,0.4,0.9,0.6,1.6,0.6c0.6,0,1.1-0.1,1.5-0.4s0.8-0.6,1-1.1c0.2-0.5,0.4-1,0.4-1.6
		c0-0.7-0.2-1.2-0.5-1.6c-0.4-0.4-0.9-0.6-1.5-0.6c-0.6,0-1.1,0.1-1.6,0.4c-0.4,0.3-0.8,0.6-1,1.1
		C512.8,294.1,512.7,294.5,512.7,295.1z"/>
	<path class="st3" d="M524.5,302.1c-1.1,0-2-0.4-2.6-1.1s-0.9-1.7-0.9-2.9c0-1.2,0.2-2.3,0.7-3.3s1.1-1.9,1.9-2.5
		c0.8-0.6,1.7-0.9,2.6-0.9c0.7,0,1.3,0.2,1.8,0.6c0.4,0.4,0.7,0.9,0.7,1.6c0,1.2-0.5,2.1-1.6,2.7s-2.6,0.9-4.7,0.9H522
		c0,0.3-0.1,0.6-0.1,0.9c0,1.1,0.2,1.9,0.7,2.4c0.5,0.6,1.2,0.8,2.1,0.8c0.8,0,1.7-0.2,2.7-0.7v0.9
		C526.5,301.9,525.5,302.1,524.5,302.1z M526.1,292.1c-0.8,0-1.6,0.4-2.3,1.1c-0.7,0.7-1.2,1.7-1.6,3h0.5c3.3,0,5-0.9,5-2.6
		c0-0.4-0.1-0.8-0.4-1.1S526.5,292.1,526.1,292.1z"/>
	<path class="st3" d="M535.6,291.4l-0.2,0.8h-2.7l-1.3,6.1c-0.1,0.6-0.2,1.2-0.2,1.6c0,0.9,0.4,1.3,1.2,1.3c0.4,0,0.9-0.1,1.5-0.3
		v0.8c-0.6,0.2-1.2,0.3-1.6,0.3c-0.6,0-1.1-0.2-1.5-0.5c-0.3-0.4-0.5-0.9-0.5-1.5c0-0.5,0.1-1.1,0.3-2l1.2-5.9H530l0.1-0.6l1.8-0.2
		l0.9-2.4h0.5l-0.5,2.5H535.6z"/>
	<path class="st3" d="M541.7,299.1c0,0.9-0.3,1.7-1,2.2c-0.7,0.5-1.6,0.8-2.7,0.8c-1.1,0-2.1-0.2-2.9-0.7v-1c0.5,0.3,1,0.5,1.5,0.7
		c0.5,0.2,1,0.2,1.4,0.2c0.9,0,1.6-0.2,2-0.6s0.7-0.9,0.7-1.6c0-0.3,0-0.5-0.1-0.7c-0.1-0.2-0.3-0.4-0.5-0.6
		c-0.2-0.2-0.6-0.5-1.3-0.8c-1-0.5-1.6-1-1.9-1.4s-0.5-0.9-0.5-1.5c0-0.8,0.3-1.5,1-2c0.6-0.5,1.5-0.8,2.5-0.8c0.5,0,1,0.1,1.5,0.2
		c0.5,0.1,1,0.3,1.4,0.4l-0.3,0.8c-0.9-0.4-1.7-0.6-2.5-0.6c-0.7,0-1.3,0.2-1.8,0.5s-0.7,0.8-0.7,1.3c0,0.4,0.1,0.6,0.2,0.8
		c0.1,0.2,0.3,0.4,0.6,0.7c0.3,0.2,0.7,0.5,1.2,0.7c0.7,0.4,1.3,0.7,1.6,1c0.3,0.3,0.5,0.5,0.7,0.8
		C541.7,298.3,541.7,298.7,541.7,299.1z"/>
	<path class="st3" d="M547.4,287.8l0,0.2c-0.3,0.7-0.7,1.4-1.1,2.3s-1,1.6-1.5,2.3h-0.7c0.4-0.7,0.8-1.5,1.2-2.3
		c0.4-0.9,0.7-1.7,1-2.5H547.4z"/>
</g>
<g>
	<path class="st3" d="M319.7,328.9c0.6,0,1.1-0.1,1.6-0.2v0.8c-0.5,0.2-1,0.2-1.6,0.2c-0.9,0-1.6-0.2-2-0.7
		c-0.4-0.5-0.7-1.3-0.7-2.3v-6.8h-1.6v-0.6l1.6-0.4l0.5-2.4h0.5v2.5h3.1v0.8h-3.1v6.6c0,0.8,0.1,1.4,0.4,1.8
		C318.6,328.7,319.1,328.9,319.7,328.9z"/>
	<path class="st3" d="M330.8,329.6v-6.8c0-1.1-0.2-1.8-0.7-2.3s-1.1-0.7-2.1-0.7c-1.3,0-2.2,0.3-2.8,0.9c-0.6,0.6-0.9,1.7-0.9,3.1
		v5.8h-1v-15h1v4.8l0,1.3h0.1c0.4-0.6,0.9-1.1,1.5-1.4c0.6-0.3,1.3-0.4,2.2-0.4c2.4,0,3.6,1.3,3.6,3.8v6.9H330.8z"/>
	<path class="st3" d="M341.5,329.6l-0.2-1.7h-0.1c-0.5,0.7-1.1,1.2-1.6,1.4s-1.2,0.4-2,0.4c-1,0-1.8-0.3-2.4-0.8
		c-0.6-0.5-0.9-1.3-0.9-2.2c0-1,0.4-1.8,1.3-2.4c0.9-0.6,2.1-0.9,3.7-0.9l2-0.1v-0.7c0-1-0.2-1.7-0.6-2.3c-0.4-0.5-1.1-0.8-2-0.8
		c-1,0-2,0.3-3,0.8l-0.4-0.8c1.2-0.5,2.3-0.8,3.4-0.8c1.2,0,2,0.3,2.6,0.9c0.6,0.6,0.9,1.5,0.9,2.8v7H341.5z M337.7,328.9
		c1.1,0,2-0.3,2.6-1c0.6-0.6,1-1.5,1-2.7v-1l-1.8,0.1c-1.5,0.1-2.5,0.3-3.1,0.7s-0.9,1-0.9,1.8c0,0.7,0.2,1.2,0.6,1.5
		S337,328.9,337.7,328.9z"/>
	<path class="st3" d="M348.4,328.9c0.6,0,1.1-0.1,1.6-0.2v0.8c-0.5,0.2-1,0.2-1.6,0.2c-0.9,0-1.6-0.2-2-0.7
		c-0.4-0.5-0.7-1.3-0.7-2.3v-6.8h-1.6v-0.6l1.6-0.4l0.5-2.4h0.5v2.5h3.1v0.8h-3.1v6.6c0,0.8,0.1,1.4,0.4,1.8
		C347.4,328.7,347.8,328.9,348.4,328.9z"/>
	<path class="st3" d="M361.2,318.9c0.8,0,1.4,0.1,2,0.4c0.6,0.3,1,0.7,1.5,1.4h0.1c0-0.8-0.1-1.6-0.1-2.4v-3.8h0.9v15H365l-0.2-1.6
		h-0.1c-0.8,1.2-1.9,1.8-3.4,1.8c-1.4,0-2.6-0.4-3.3-1.4c-0.8-0.9-1.1-2.2-1.1-3.9c0-1.8,0.4-3.2,1.1-4.2
		C358.7,319.4,359.8,318.9,361.2,318.9z M361.2,319.7c-1.1,0-2,0.4-2.6,1.2s-0.9,2-0.9,3.5c0,3,1.2,4.5,3.5,4.5c1.2,0,2.1-0.3,2.6-1
		c0.6-0.7,0.8-1.8,0.8-3.4v-0.2c0-1.6-0.3-2.8-0.8-3.5S362.4,319.7,361.2,319.7z"/>
	<path class="st3" d="M373.4,329.8c-1.5,0-2.7-0.5-3.6-1.4c-0.9-0.9-1.3-2.3-1.3-3.9c0-1.7,0.4-3,1.2-4c0.8-1,1.9-1.5,3.3-1.5
		c1.2,0,2.2,0.4,2.9,1.3c0.7,0.9,1.1,2,1.1,3.5v0.8h-7.6c0,1.4,0.3,2.5,1,3.3c0.7,0.8,1.6,1.1,2.8,1.1c0.6,0,1.1,0,1.6-0.1
		c0.5-0.1,1-0.3,1.7-0.5v0.9c-0.6,0.3-1.1,0.4-1.6,0.5C374.5,329.7,374,329.8,373.4,329.8z M373.1,319.7c-1,0-1.8,0.3-2.4,1
		c-0.6,0.7-1,1.6-1.1,2.9h6.5c0-1.2-0.3-2.2-0.8-2.8C374.8,320.1,374,319.7,373.1,319.7z"/>
	<path class="st3" d="M386.5,326.8c0,0.9-0.4,1.7-1.1,2.2c-0.7,0.5-1.7,0.8-3,0.8c-1.4,0-2.5-0.2-3.3-0.6v-1
		c1.1,0.5,2.2,0.8,3.3,0.8c1,0,1.8-0.2,2.4-0.5c0.5-0.3,0.8-0.8,0.8-1.4c0-0.5-0.2-1-0.6-1.3c-0.4-0.4-1.1-0.7-2.1-1.1
		c-1-0.4-1.8-0.7-2.2-1s-0.7-0.6-1-0.9s-0.3-0.8-0.3-1.3c0-0.8,0.3-1.4,1-1.9c0.7-0.5,1.6-0.7,2.8-0.7c1.1,0,2.2,0.2,3.2,0.6
		l-0.4,0.9c-1-0.4-2-0.6-2.9-0.6c-0.9,0-1.5,0.1-2,0.4c-0.5,0.3-0.8,0.7-0.8,1.2c0,0.5,0.2,1,0.6,1.3c0.4,0.3,1.1,0.7,2.3,1.1
		c0.9,0.3,1.6,0.6,2.1,0.9c0.4,0.3,0.8,0.6,1,0.9S386.5,326.4,386.5,326.8z"/>
	<path class="st3" d="M393.4,329.8c-1.5,0-2.7-0.5-3.5-1.4c-0.8-0.9-1.3-2.3-1.3-4c0-1.7,0.4-3.1,1.3-4.1c0.9-1,2.1-1.5,3.6-1.5
		c0.9,0,1.8,0.2,2.6,0.5l-0.3,0.8c-0.9-0.3-1.7-0.5-2.4-0.5c-1.3,0-2.3,0.4-2.9,1.2c-0.7,0.8-1,1.9-1,3.4c0,1.4,0.3,2.5,1,3.3
		c0.7,0.8,1.6,1.2,2.8,1.2c1,0,1.8-0.2,2.7-0.5v0.9C395.3,329.6,394.5,329.8,393.4,329.8z"/>
	<path class="st3" d="M402.7,318.9c0.4,0,0.9,0,1.4,0.1l-0.2,0.9c-0.4-0.1-0.9-0.2-1.4-0.2c-0.9,0-1.6,0.4-2.2,1.1s-0.9,1.7-0.9,2.9
		v5.8h-1v-10.5h0.8l0.1,1.9h0.1c0.4-0.8,0.9-1.3,1.4-1.6C401.4,319,402,318.9,402.7,318.9z"/>
	<path class="st3" d="M406.1,316.2c0-0.6,0.2-0.9,0.6-0.9c0.2,0,0.4,0.1,0.5,0.2c0.1,0.2,0.2,0.4,0.2,0.7c0,0.3-0.1,0.5-0.2,0.7
		c-0.1,0.2-0.3,0.3-0.5,0.3C406.3,317.1,406.1,316.8,406.1,316.2z M407.2,329.6h-1v-10.5h1V329.6z"/>
	<path class="st3" d="M415.1,318.9c1.5,0,2.6,0.5,3.3,1.4c0.7,0.9,1.1,2.3,1.1,4c0,1.7-0.4,3.1-1.2,4c-0.8,0.9-1.9,1.4-3.3,1.4
		c-0.7,0-1.4-0.2-2-0.5c-0.6-0.3-1.1-0.7-1.4-1.3h-0.1l-0.3,1.6h-0.6v-15h1v3.8c0,0.6,0,1.1,0,1.6l0,0.8h0.1
		c0.4-0.6,0.9-1.1,1.4-1.4C413.7,319,414.4,318.9,415.1,318.9z M415.1,319.7c-1.2,0-2.1,0.4-2.7,1.1c-0.5,0.7-0.8,1.9-0.8,3.5v0.2
		c0,1.6,0.3,2.7,0.8,3.4s1.4,1,2.6,1c1.1,0,2-0.4,2.6-1.2c0.6-0.8,0.9-1.9,0.9-3.4C418.6,321.3,417.4,319.7,415.1,319.7z"/>
	<path class="st3" d="M426.7,329.8c-1.5,0-2.7-0.5-3.6-1.4c-0.9-0.9-1.3-2.3-1.3-3.9c0-1.7,0.4-3,1.2-4c0.8-1,1.9-1.5,3.3-1.5
		c1.2,0,2.2,0.4,2.9,1.3c0.7,0.9,1.1,2,1.1,3.5v0.8h-7.6c0,1.4,0.3,2.5,1,3.3c0.7,0.8,1.6,1.1,2.8,1.1c0.6,0,1.1,0,1.6-0.1
		c0.5-0.1,1-0.3,1.7-0.5v0.9c-0.6,0.3-1.1,0.4-1.6,0.5C427.9,329.7,427.3,329.8,426.7,329.8z M426.4,319.7c-1,0-1.8,0.3-2.4,1
		c-0.6,0.7-1,1.6-1.1,2.9h6.5c0-1.2-0.3-2.2-0.8-2.8C428.1,320.1,427.4,319.7,426.4,319.7z"/>
	<path class="st3" d="M446.8,329.6l-2.3-7c-0.1-0.5-0.3-1.2-0.6-2.1h-0.1l-0.2,0.7l-0.4,1.4l-2.3,7H440l-3-10.5h1l1.7,6.1
		c0.4,1.5,0.6,2.6,0.8,3.3h0.1c0.4-1.5,0.7-2.5,0.8-3l2.2-6.4h0.9l2.1,6.4c0.5,1.5,0.7,2.5,0.8,3h0.1c0.1-0.4,0.3-1.5,0.8-3.4l1.6-6
		h1l-2.8,10.5H446.8z"/>
	<path class="st3" d="M460,329.6v-6.8c0-1.1-0.2-1.8-0.7-2.3s-1.1-0.7-2.1-0.7c-1.3,0-2.2,0.3-2.8,0.9c-0.6,0.6-0.9,1.7-0.9,3.1v5.8
		h-1v-15h1v4.8l0,1.3h0.1c0.4-0.6,0.9-1.1,1.5-1.4c0.6-0.3,1.3-0.4,2.2-0.4c2.4,0,3.6,1.3,3.6,3.8v6.9H460z"/>
	<path class="st3" d="M470.7,329.6l-0.2-1.7h-0.1c-0.5,0.7-1.1,1.2-1.6,1.4s-1.2,0.4-2,0.4c-1,0-1.8-0.3-2.4-0.8
		c-0.6-0.5-0.9-1.3-0.9-2.2c0-1,0.4-1.8,1.3-2.4c0.9-0.6,2.1-0.9,3.7-0.9l2-0.1v-0.7c0-1-0.2-1.7-0.6-2.3c-0.4-0.5-1.1-0.8-2-0.8
		c-1,0-2,0.3-3,0.8l-0.4-0.8c1.2-0.5,2.3-0.8,3.4-0.8c1.2,0,2,0.3,2.6,0.9c0.6,0.6,0.9,1.5,0.9,2.8v7H470.7z M466.9,328.9
		c1.1,0,2-0.3,2.6-1c0.6-0.6,1-1.5,1-2.7v-1l-1.8,0.1c-1.5,0.1-2.5,0.3-3.1,0.7s-0.9,1-0.9,1.8c0,0.7,0.2,1.2,0.6,1.5
		S466.2,328.9,466.9,328.9z"/>
	<path class="st3" d="M477.6,328.9c0.6,0,1.1-0.1,1.6-0.2v0.8c-0.5,0.2-1,0.2-1.6,0.2c-0.9,0-1.6-0.2-2-0.7
		c-0.4-0.5-0.7-1.3-0.7-2.3v-6.8h-1.6v-0.6l1.6-0.4l0.5-2.4h0.5v2.5h3.1v0.8h-3.1v6.6c0,0.8,0.1,1.4,0.4,1.8
		C476.6,328.7,477,328.9,477.6,328.9z"/>
	<path class="st3" d="M493.1,326.8c0,0.9-0.4,1.7-1.1,2.2c-0.7,0.5-1.7,0.8-3,0.8c-1.4,0-2.5-0.2-3.3-0.6v-1
		c1.1,0.5,2.2,0.8,3.3,0.8c1,0,1.8-0.2,2.4-0.5c0.5-0.3,0.8-0.8,0.8-1.4c0-0.5-0.2-1-0.6-1.3c-0.4-0.4-1.1-0.7-2.1-1.1
		c-1-0.4-1.8-0.7-2.2-1s-0.7-0.6-1-0.9s-0.3-0.8-0.3-1.3c0-0.8,0.3-1.4,1-1.9c0.7-0.5,1.6-0.7,2.8-0.7c1.1,0,2.2,0.2,3.2,0.6
		l-0.4,0.9c-1-0.4-2-0.6-2.9-0.6c-0.9,0-1.5,0.1-2,0.4c-0.5,0.3-0.8,0.7-0.8,1.2c0,0.5,0.2,1,0.6,1.3c0.4,0.3,1.1,0.7,2.3,1.1
		c0.9,0.3,1.6,0.6,2.1,0.9c0.4,0.3,0.8,0.6,1,0.9S493.1,326.4,493.1,326.8z"/>
	<path class="st3" d="M496.6,319.1v6.8c0,1.1,0.2,1.8,0.7,2.3s1.1,0.7,2.1,0.7c1.2,0,2.2-0.3,2.8-0.9c0.6-0.6,0.9-1.7,0.9-3.1v-5.8
		h0.9v10.5h-0.8l-0.2-1.4h-0.1c-0.7,1.1-1.9,1.6-3.6,1.6c-2.4,0-3.6-1.3-3.6-3.8v-6.8H496.6z"/>
	<path class="st3" d="M511.6,329.8c-1.5,0-2.7-0.5-3.5-1.4c-0.8-0.9-1.3-2.3-1.3-4c0-1.7,0.4-3.1,1.3-4.1c0.9-1,2.1-1.5,3.6-1.5
		c0.9,0,1.8,0.2,2.6,0.5l-0.3,0.8c-0.9-0.3-1.7-0.5-2.4-0.5c-1.3,0-2.3,0.4-2.9,1.2c-0.7,0.8-1,1.9-1,3.4c0,1.4,0.3,2.5,1,3.3
		c0.7,0.8,1.6,1.2,2.8,1.2c1,0,1.8-0.2,2.7-0.5v0.9C513.6,329.6,512.7,329.8,511.6,329.8z"/>
	<path class="st3" d="M521,329.8c-1.5,0-2.7-0.5-3.5-1.4c-0.8-0.9-1.3-2.3-1.3-4c0-1.7,0.4-3.1,1.3-4.1c0.9-1,2.1-1.5,3.6-1.5
		c0.9,0,1.8,0.2,2.6,0.5l-0.3,0.8c-0.9-0.3-1.7-0.5-2.4-0.5c-1.3,0-2.3,0.4-2.9,1.2c-0.7,0.8-1,1.9-1,3.4c0,1.4,0.3,2.5,1,3.3
		c0.7,0.8,1.6,1.2,2.8,1.2c1,0,1.8-0.2,2.7-0.5v0.9C523,329.6,522.1,329.8,521,329.8z"/>
	<path class="st3" d="M530.4,329.8c-1.5,0-2.7-0.5-3.6-1.4c-0.9-0.9-1.3-2.3-1.3-3.9c0-1.7,0.4-3,1.2-4c0.8-1,1.9-1.5,3.3-1.5
		c1.2,0,2.2,0.4,2.9,1.3c0.7,0.9,1.1,2,1.1,3.5v0.8h-7.6c0,1.4,0.3,2.5,1,3.3c0.7,0.8,1.6,1.1,2.8,1.1c0.6,0,1.1,0,1.6-0.1
		c0.5-0.1,1-0.3,1.7-0.5v0.9c-0.6,0.3-1.1,0.4-1.6,0.5C531.6,329.7,531,329.8,530.4,329.8z M530.2,319.7c-1,0-1.8,0.3-2.4,1
		c-0.6,0.7-1,1.6-1.1,2.9h6.5c0-1.2-0.3-2.2-0.8-2.8C531.8,320.1,531.1,319.7,530.2,319.7z"/>
	<path class="st3" d="M543.5,326.8c0,0.9-0.4,1.7-1.1,2.2c-0.7,0.5-1.7,0.8-3,0.8c-1.4,0-2.5-0.2-3.3-0.6v-1
		c1.1,0.5,2.2,0.8,3.3,0.8c1,0,1.8-0.2,2.4-0.5c0.5-0.3,0.8-0.8,0.8-1.4c0-0.5-0.2-1-0.6-1.3c-0.4-0.4-1.1-0.7-2.1-1.1
		c-1-0.4-1.8-0.7-2.2-1s-0.7-0.6-1-0.9s-0.3-0.8-0.3-1.3c0-0.8,0.3-1.4,1-1.9c0.7-0.5,1.6-0.7,2.8-0.7c1.1,0,2.2,0.2,3.2,0.6
		l-0.4,0.9c-1-0.4-2-0.6-2.9-0.6c-0.9,0-1.5,0.1-2,0.4c-0.5,0.3-0.8,0.7-0.8,1.2c0,0.5,0.2,1,0.6,1.3c0.4,0.3,1.1,0.7,2.3,1.1
		c0.9,0.3,1.6,0.6,2.1,0.9c0.4,0.3,0.8,0.6,1,0.9S543.5,326.4,543.5,326.8z"/>
	<path class="st3" d="M552.7,326.8c0,0.9-0.4,1.7-1.1,2.2c-0.7,0.5-1.7,0.8-3,0.8c-1.4,0-2.5-0.2-3.3-0.6v-1
		c1.1,0.5,2.2,0.8,3.3,0.8c1,0,1.8-0.2,2.4-0.5c0.5-0.3,0.8-0.8,0.8-1.4c0-0.5-0.2-1-0.6-1.3c-0.4-0.4-1.1-0.7-2.1-1.1
		c-1-0.4-1.8-0.7-2.2-1s-0.7-0.6-1-0.9s-0.3-0.8-0.3-1.3c0-0.8,0.3-1.4,1-1.9c0.7-0.5,1.6-0.7,2.8-0.7c1.1,0,2.2,0.2,3.2,0.6
		l-0.4,0.9c-1-0.4-2-0.6-2.9-0.6c-0.9,0-1.5,0.1-2,0.4c-0.5,0.3-0.8,0.7-0.8,1.2c0,0.5,0.2,1,0.6,1.3c0.4,0.3,1.1,0.7,2.3,1.1
		c0.9,0.3,1.6,0.6,2.1,0.9c0.4,0.3,0.8,0.6,1,0.9S552.7,326.4,552.7,326.8z"/>
</g>
<g>
	<path class="st3" d="M394.4,357.2h-1v-15h1V357.2z"/>
	<path class="st3" d="M406.6,352c0,1.7-0.4,3-1.2,4c-0.8,1-2,1.4-3.4,1.4c-0.9,0-1.7-0.2-2.4-0.7c-0.7-0.4-1.2-1.1-1.6-1.9
		c-0.4-0.8-0.6-1.8-0.6-2.9c0-1.7,0.4-3,1.2-4c0.8-1,2-1.4,3.4-1.4c1.4,0,2.6,0.5,3.4,1.5C406.2,349,406.6,350.3,406.6,352z
		 M398.3,352c0,1.4,0.3,2.6,1,3.4c0.6,0.8,1.5,1.2,2.7,1.2c1.2,0,2.1-0.4,2.7-1.2c0.6-0.8,1-1.9,1-3.4c0-1.4-0.3-2.6-1-3.4
		s-1.5-1.2-2.7-1.2s-2,0.4-2.7,1.2S398.3,350.5,398.3,352z"/>
	<path class="st3" d="M418.1,352c0,1.7-0.4,3-1.2,4c-0.8,1-2,1.4-3.4,1.4c-0.9,0-1.7-0.2-2.4-0.7c-0.7-0.4-1.2-1.1-1.6-1.9
		c-0.4-0.8-0.6-1.8-0.6-2.9c0-1.7,0.4-3,1.2-4c0.8-1,2-1.4,3.4-1.4c1.4,0,2.6,0.5,3.4,1.5C417.7,349,418.1,350.3,418.1,352z
		 M409.9,352c0,1.4,0.3,2.6,1,3.4c0.6,0.8,1.5,1.2,2.7,1.2c1.2,0,2.1-0.4,2.7-1.2c0.6-0.8,1-1.9,1-3.4c0-1.4-0.3-2.6-1-3.4
		s-1.5-1.2-2.7-1.2s-2,0.4-2.7,1.2S409.9,350.5,409.9,352z"/>
	<path class="st3" d="M422,352.6l5.4-5.9h1.2l-4.1,4.5l4.5,6h-1.1l-4-5.3l-1.7,1.6v3.7h-1v-15h1v7.5L422,352.6L422,352.6z"/>
	<path class="st3" d="M437.1,354.5c0,0.9-0.4,1.7-1.1,2.2c-0.7,0.5-1.7,0.8-3,0.8c-1.4,0-2.5-0.2-3.3-0.6v-1
		c1.1,0.5,2.2,0.8,3.3,0.8c1,0,1.8-0.2,2.4-0.5c0.5-0.3,0.8-0.8,0.8-1.4c0-0.5-0.2-1-0.6-1.3c-0.4-0.4-1.1-0.7-2.1-1.1
		c-1-0.4-1.8-0.7-2.2-1s-0.7-0.6-1-0.9s-0.3-0.8-0.3-1.3c0-0.8,0.3-1.4,1-1.9c0.7-0.5,1.6-0.7,2.8-0.7c1.1,0,2.2,0.2,3.2,0.6
		l-0.4,0.9c-1-0.4-2-0.6-2.9-0.6c-0.9,0-1.5,0.1-2,0.4c-0.5,0.3-0.8,0.7-0.8,1.2c0,0.5,0.2,1,0.6,1.3c0.4,0.3,1.1,0.7,2.3,1.1
		c0.9,0.3,1.6,0.6,2.1,0.9c0.4,0.3,0.8,0.6,1,0.9S437.1,354,437.1,354.5z"/>
	<path class="st3" d="M445.9,357.2h-1v-15h1V357.2z"/>
	<path class="st3" d="M449.3,343.8c0-0.6,0.2-0.9,0.6-0.9c0.2,0,0.4,0.1,0.5,0.2c0.1,0.2,0.2,0.4,0.2,0.7c0,0.3-0.1,0.5-0.2,0.7
		c-0.1,0.2-0.3,0.3-0.5,0.3C449.5,344.8,449.3,344.4,449.3,343.8z M450.3,357.2h-1v-10.5h1V357.2z"/>
	<path class="st3" d="M454.8,352.6l5.4-5.9h1.2l-4.1,4.5l4.5,6h-1.1l-4-5.3l-1.7,1.6v3.7h-1v-15h1v7.5L454.8,352.6L454.8,352.6z"/>
	<path class="st3" d="M467.6,357.4c-1.5,0-2.7-0.5-3.6-1.4c-0.9-0.9-1.3-2.3-1.3-3.9c0-1.7,0.4-3,1.2-4c0.8-1,1.9-1.5,3.3-1.5
		c1.2,0,2.2,0.4,2.9,1.3c0.7,0.9,1.1,2,1.1,3.5v0.8h-7.6c0,1.4,0.3,2.5,1,3.3c0.7,0.8,1.6,1.1,2.8,1.1c0.6,0,1.1,0,1.6-0.1
		c0.5-0.1,1-0.3,1.7-0.5v0.9c-0.6,0.3-1.1,0.4-1.6,0.5C468.8,357.4,468.3,357.4,467.6,357.4z M467.4,347.4c-1,0-1.8,0.3-2.4,1
		c-0.6,0.7-1,1.6-1.1,2.9h6.5c0-1.2-0.3-2.2-0.8-2.8C469,347.7,468.3,347.4,467.4,347.4z"/>
	<path class="st3" d="M474.1,356.5c0-0.6,0.3-0.9,0.8-0.9c0.5,0,0.8,0.3,0.8,0.9c0,0.6-0.3,0.9-0.8,0.9
		C474.3,357.4,474.1,357.1,474.1,356.5z"/>
</g>
<g>
	<path class="st3" d="M624.8,301.9h-1v-13.2h-4.6v-0.9h10.2v0.9h-4.6V301.9z"/>
	<path class="st3" d="M638.5,301.9v-6.8c0-1.1-0.2-1.8-0.7-2.3s-1.1-0.7-2.1-0.7c-1.3,0-2.2,0.3-2.8,0.9c-0.6,0.6-0.9,1.7-0.9,3.1
		v5.8h-1v-15h1v4.8l0,1.3h0.1c0.4-0.6,0.9-1.1,1.5-1.4c0.6-0.3,1.3-0.4,2.2-0.4c2.4,0,3.6,1.3,3.6,3.8v6.9H638.5z"/>
	<path class="st3" d="M647.1,302.1c-1.5,0-2.7-0.5-3.6-1.4c-0.9-0.9-1.3-2.3-1.3-3.9c0-1.7,0.4-3,1.2-4c0.8-1,1.9-1.5,3.3-1.5
		c1.2,0,2.2,0.4,2.9,1.3c0.7,0.9,1.1,2,1.1,3.5v0.8h-7.6c0,1.4,0.3,2.5,1,3.3c0.7,0.8,1.6,1.1,2.8,1.1c0.6,0,1.1,0,1.6-0.1
		c0.5-0.1,1-0.3,1.7-0.5v0.9c-0.6,0.3-1.1,0.4-1.6,0.5C648.3,302.1,647.7,302.1,647.1,302.1z M646.8,292.1c-1,0-1.8,0.3-2.4,1
		c-0.6,0.7-1,1.6-1.1,2.9h6.5c0-1.2-0.3-2.2-0.8-2.8C648.5,292.4,647.8,292.1,646.8,292.1z"/>
</g>
<g>
	<path class="st3" d="M658.4,292.6l0-0.2c0.3-0.6,0.6-1.4,1.1-2.2c0.5-0.8,1-1.6,1.6-2.4h0.7c-0.4,0.7-0.8,1.5-1.2,2.3
		s-0.7,1.7-1,2.5H658.4z"/>
	<path class="st3" d="M667.3,301.9l1.4-6.7c0.1-0.6,0.2-1.1,0.2-1.5c0-0.5-0.1-0.9-0.4-1.2c-0.3-0.3-0.7-0.4-1.3-0.4
		c-0.7,0-1.4,0.2-2,0.6s-1.2,1-1.6,1.8c-0.4,0.8-0.8,1.7-1,2.8l-1,4.6h-0.9l3.2-15h0.9l-0.8,4c-0.3,1.3-0.5,2.2-0.6,2.7h0.1
		c0.5-0.7,1.1-1.3,1.8-1.7s1.4-0.6,2.2-0.6c0.8,0,1.4,0.2,1.9,0.6c0.4,0.4,0.7,1,0.7,1.8c0,0.5-0.1,1-0.2,1.8l-1.4,6.5H667.3z"/>
	<path class="st3" d="M677.3,291.2c1.2,0,2.1,0.3,2.7,1c0.6,0.7,1,1.7,1,2.9c0,1.3-0.2,2.5-0.7,3.6s-1.1,1.9-1.9,2.5
		c-0.8,0.6-1.7,0.9-2.8,0.9c-1.2,0-2.1-0.4-2.7-1.1s-0.9-1.7-0.9-3c0-1.2,0.2-2.4,0.7-3.5c0.5-1.1,1.1-1.9,1.9-2.5
		S676.2,291.2,677.3,291.2z M677.2,292.1c-0.8,0-1.5,0.3-2.2,0.8c-0.6,0.5-1.1,1.2-1.5,2.2c-0.4,0.9-0.6,1.9-0.6,3
		c0,2.2,0.9,3.3,2.7,3.3c0.8,0,1.5-0.2,2.2-0.7c0.6-0.5,1.1-1.2,1.5-2.2c0.4-1,0.6-2,0.6-3.2c0-1-0.2-1.8-0.7-2.3
		C678.7,292.3,678.1,292.1,677.2,292.1z"/>
	<path class="st3" d="M689.9,301.9l-0.6-6.6c-0.1-1.4-0.1-2.3-0.1-2.6h-0.1c-0.2,0.6-0.7,1.5-1.4,2.8l-3.4,6.4h-1.1l-0.2-10.5h0.9
		l0.1,7.9l0,1.5h0.1c0.4-0.9,0.9-1.8,1.4-2.9l3.6-6.6h0.7l0.6,6.6c0.1,0.9,0.1,1.9,0.1,2.9h0.1l0.2-0.6l1-2.3l3.1-6.6h0.9l-4.9,10.5
		H689.9z"/>
	<path class="st3" d="M699.8,287.8l0,0.2c-0.3,0.7-0.7,1.4-1.1,2.3c-0.5,0.8-1,1.6-1.5,2.3h-0.7c0.4-0.7,0.8-1.5,1.2-2.3
		s0.7-1.7,1-2.5H699.8z"/>
</g>
<g>
	<path class="st3" d="M703.3,291.4h1l2.2,5.9c0.7,1.8,1.1,3,1.3,3.7h0.1c0.3-0.8,0.7-2.1,1.3-3.7l2.2-5.8h1l-4.7,12.2
		c-0.4,1-0.7,1.7-1,2s-0.6,0.6-0.9,0.8c-0.3,0.2-0.8,0.3-1.2,0.3c-0.4,0-0.8-0.1-1.2-0.2v-0.8c0.4,0.1,0.8,0.2,1.2,0.2
		c0.3,0,0.6-0.1,0.9-0.2c0.2-0.2,0.5-0.4,0.7-0.7c0.2-0.3,0.4-0.8,0.7-1.5c0.3-0.7,0.4-1.2,0.5-1.4L703.3,291.4z"/>
	<path class="st3" d="M722.8,296.7c0,1.7-0.4,3-1.2,4c-0.8,1-2,1.4-3.4,1.4c-0.9,0-1.7-0.2-2.4-0.7c-0.7-0.4-1.2-1.1-1.6-1.9
		c-0.4-0.8-0.6-1.8-0.6-2.9c0-1.7,0.4-3,1.2-4s2-1.4,3.4-1.4c1.4,0,2.6,0.5,3.4,1.5C722.4,293.6,722.8,295,722.8,296.7z
		 M714.5,296.7c0,1.4,0.3,2.6,1,3.4c0.6,0.8,1.5,1.2,2.7,1.2s2.1-0.4,2.7-1.2c0.6-0.8,0.9-1.9,0.9-3.4c0-1.4-0.3-2.6-1-3.4
		s-1.5-1.2-2.7-1.2c-1.2,0-2,0.4-2.7,1.2S714.5,295.2,714.5,296.7z"/>
	<path class="st3" d="M726.5,291.4v6.8c0,1.1,0.2,1.8,0.7,2.3s1.1,0.7,2.1,0.7c1.2,0,2.2-0.3,2.8-0.9c0.6-0.6,0.9-1.7,0.9-3.1v-5.8
		h0.9v10.5H733l-0.2-1.4h-0.1c-0.7,1.1-1.9,1.6-3.6,1.6c-2.4,0-3.6-1.3-3.6-3.8v-6.8H726.5z"/>
	<path class="st3" d="M748.8,301.9l-0.2-1.7h-0.1c-0.5,0.7-1.1,1.2-1.6,1.4c-0.6,0.3-1.2,0.4-2,0.4c-1,0-1.8-0.3-2.4-0.8
		c-0.6-0.5-0.9-1.3-0.9-2.2c0-1,0.4-1.8,1.3-2.4c0.9-0.6,2.1-0.9,3.7-0.9l2-0.1v-0.7c0-1-0.2-1.7-0.6-2.3c-0.4-0.5-1.1-0.8-2-0.8
		c-1,0-2,0.3-3,0.8l-0.4-0.8c1.2-0.5,2.3-0.8,3.4-0.8c1.2,0,2,0.3,2.6,0.9c0.6,0.6,0.9,1.5,0.9,2.8v7H748.8z M745,301.2
		c1.1,0,2-0.3,2.6-1c0.6-0.6,1-1.5,1-2.7v-1l-1.8,0.1c-1.5,0.1-2.5,0.3-3.1,0.7c-0.6,0.4-0.9,1-0.9,1.8c0,0.7,0.2,1.2,0.6,1.5
		C743.7,301.1,744.2,301.2,745,301.2z"/>
	<path class="st3" d="M760.2,301.9v-6.8c0-1.1-0.2-1.8-0.7-2.3c-0.4-0.5-1.1-0.7-2.1-0.7c-1.3,0-2.2,0.3-2.8,0.9
		c-0.6,0.6-0.9,1.7-0.9,3.1v5.8h-1v-10.5h0.8l0.2,1.4h0.1c0.7-1.1,1.9-1.6,3.6-1.6c2.4,0,3.6,1.3,3.6,3.8v6.9H760.2z"/>
	<path class="st3" d="M768.4,291.2c0.8,0,1.4,0.1,2,0.4c0.6,0.3,1,0.7,1.5,1.4h0.1c0-0.8-0.1-1.6-0.1-2.4v-3.8h0.9v15h-0.6l-0.2-1.6
		h-0.1c-0.8,1.2-1.9,1.8-3.4,1.8c-1.4,0-2.6-0.4-3.3-1.4c-0.8-0.9-1.1-2.2-1.1-3.9c0-1.8,0.4-3.2,1.1-4.2
		C765.9,291.7,767,291.2,768.4,291.2z M768.4,292.1c-1.1,0-2,0.4-2.6,1.2s-0.9,2-0.9,3.5c0,3,1.2,4.5,3.5,4.5c1.2,0,2.1-0.3,2.6-1
		s0.8-1.8,0.8-3.4v-0.2c0-1.6-0.3-2.8-0.8-3.5C770.5,292.5,769.6,292.1,768.4,292.1z"/>
	<path class="st3" d="M779.7,291.4h1l2.2,5.9c0.7,1.8,1.1,3,1.3,3.7h0.1c0.3-0.8,0.7-2.1,1.3-3.7l2.2-5.8h1l-4.7,12.2
		c-0.4,1-0.7,1.7-1,2s-0.6,0.6-0.9,0.8c-0.3,0.2-0.8,0.3-1.2,0.3c-0.4,0-0.8-0.1-1.2-0.2v-0.8c0.4,0.1,0.8,0.2,1.2,0.2
		c0.3,0,0.6-0.1,0.9-0.2c0.2-0.2,0.5-0.4,0.7-0.7c0.2-0.3,0.4-0.8,0.7-1.5c0.3-0.7,0.4-1.2,0.5-1.4L779.7,291.4z"/>
	<path class="st3" d="M799.2,296.7c0,1.7-0.4,3-1.2,4c-0.8,1-2,1.4-3.4,1.4c-0.9,0-1.7-0.2-2.4-0.7c-0.7-0.4-1.2-1.1-1.6-1.9
		c-0.4-0.8-0.6-1.8-0.6-2.9c0-1.7,0.4-3,1.2-4s2-1.4,3.4-1.4c1.4,0,2.6,0.5,3.4,1.5C798.8,293.6,799.2,295,799.2,296.7z
		 M790.9,296.7c0,1.4,0.3,2.6,1,3.4c0.6,0.8,1.5,1.2,2.7,1.2s2.1-0.4,2.7-1.2c0.6-0.8,0.9-1.9,0.9-3.4c0-1.4-0.3-2.6-1-3.4
		s-1.5-1.2-2.7-1.2c-1.2,0-2,0.4-2.7,1.2S790.9,295.2,790.9,296.7z"/>
	<path class="st3" d="M802.9,291.4v6.8c0,1.1,0.2,1.8,0.7,2.3s1.1,0.7,2.1,0.7c1.2,0,2.2-0.3,2.8-0.9c0.6-0.6,0.9-1.7,0.9-3.1v-5.8
		h0.9v10.5h-0.8l-0.2-1.4h-0.1c-0.7,1.1-1.9,1.6-3.6,1.6c-2.4,0-3.6-1.3-3.6-3.8v-6.8H802.9z"/>
	<path class="st3" d="M817.9,291.2c0.4,0,0.9,0,1.4,0.1l-0.2,0.9c-0.4-0.1-0.9-0.2-1.4-0.2c-0.9,0-1.6,0.4-2.2,1.1s-0.9,1.7-0.9,2.9
		v5.8h-1v-10.5h0.8l0.1,1.9h0.1c0.4-0.8,0.9-1.3,1.4-1.6S817.2,291.2,817.9,291.2z"/>
</g>
<g>
	<path class="st3" d="M623.3,329.8c-1.5,0-2.7-0.5-3.5-1.4c-0.8-0.9-1.3-2.3-1.3-4c0-1.7,0.4-3.1,1.3-4.1c0.9-1,2.1-1.5,3.6-1.5
		c0.9,0,1.8,0.2,2.6,0.5l-0.3,0.8c-0.9-0.3-1.7-0.5-2.4-0.5c-1.3,0-2.3,0.4-2.9,1.2c-0.7,0.8-1,1.9-1,3.4c0,1.4,0.3,2.5,1,3.3
		c0.7,0.8,1.6,1.2,2.8,1.2c1,0,1.8-0.2,2.7-0.5v0.9C625.2,329.6,624.4,329.8,623.3,329.8z"/>
	<path class="st3" d="M637.1,324.3c0,1.7-0.4,3-1.2,4c-0.8,1-2,1.4-3.4,1.4c-0.9,0-1.7-0.2-2.4-0.7c-0.7-0.4-1.2-1.1-1.6-1.9
		c-0.4-0.8-0.6-1.8-0.6-2.9c0-1.7,0.4-3,1.2-4c0.8-1,2-1.4,3.4-1.4c1.4,0,2.6,0.5,3.4,1.5C636.7,321.3,637.1,322.6,637.1,324.3z
		 M628.9,324.3c0,1.4,0.3,2.6,1,3.4c0.6,0.8,1.5,1.2,2.7,1.2c1.2,0,2.1-0.4,2.7-1.2c0.6-0.8,1-1.9,1-3.4c0-1.4-0.3-2.6-1-3.4
		s-1.5-1.2-2.7-1.2s-2,0.4-2.7,1.2S628.9,322.9,628.9,324.3z"/>
	<path class="st3" d="M641,329.6h-1v-15h1V329.6z"/>
	<path class="st3" d="M645.5,329.6h-1v-15h1V329.6z"/>
	<path class="st3" d="M653.2,329.8c-1.5,0-2.7-0.5-3.6-1.4c-0.9-0.9-1.3-2.3-1.3-3.9c0-1.7,0.4-3,1.2-4c0.8-1,1.9-1.5,3.3-1.5
		c1.2,0,2.2,0.4,2.9,1.3c0.7,0.9,1.1,2,1.1,3.5v0.8h-7.6c0,1.4,0.3,2.5,1,3.3c0.7,0.8,1.6,1.1,2.8,1.1c0.6,0,1.1,0,1.6-0.1
		s1-0.3,1.7-0.5v0.9c-0.6,0.3-1.1,0.4-1.6,0.5C654.4,329.7,653.8,329.8,653.2,329.8z M652.9,319.7c-1,0-1.8,0.3-2.4,1
		c-0.6,0.7-1,1.6-1.1,2.9h6.5c0-1.2-0.3-2.2-0.8-2.8C654.6,320.1,653.9,319.7,652.9,319.7z"/>
	<path class="st3" d="M666.2,329.6l-0.2-1.7h-0.1c-0.5,0.7-1.1,1.2-1.6,1.4c-0.6,0.3-1.2,0.4-2,0.4c-1,0-1.8-0.3-2.4-0.8
		c-0.6-0.5-0.9-1.3-0.9-2.2c0-1,0.4-1.8,1.3-2.4c0.9-0.6,2.1-0.9,3.7-0.9l2-0.1v-0.7c0-1-0.2-1.7-0.6-2.3c-0.4-0.5-1.1-0.8-2-0.8
		c-1,0-2,0.3-3,0.8l-0.4-0.8c1.2-0.5,2.3-0.8,3.4-0.8c1.2,0,2,0.3,2.6,0.9c0.6,0.6,0.9,1.5,0.9,2.8v7H666.2z M662.3,328.9
		c1.1,0,2-0.3,2.6-1c0.6-0.6,1-1.5,1-2.7v-1l-1.8,0.1c-1.5,0.1-2.5,0.3-3.1,0.7c-0.6,0.4-0.9,1-0.9,1.8c0,0.7,0.2,1.2,0.6,1.5
		C661,328.7,661.6,328.9,662.3,328.9z"/>
	<path class="st3" d="M678.5,319.1v0.7l-2.2,0.1c0.6,0.7,0.9,1.5,0.9,2.4c0,1-0.3,1.8-1,2.5c-0.7,0.6-1.6,0.9-2.7,0.9
		c-0.5,0-0.8,0-1-0.1c-0.4,0.2-0.7,0.4-0.9,0.7c-0.2,0.3-0.3,0.6-0.3,0.9c0,0.3,0.1,0.6,0.4,0.7c0.3,0.2,0.7,0.2,1.3,0.2h1.8
		c1.1,0,2,0.2,2.6,0.7c0.6,0.5,0.9,1.1,0.9,2c0,1.1-0.4,2-1.3,2.6c-0.9,0.6-2.2,0.9-3.8,0.9c-1.3,0-2.3-0.3-3.1-0.8
		c-0.7-0.5-1.1-1.2-1.1-2.1c0-0.7,0.2-1.3,0.7-1.8c0.4-0.5,1.1-0.8,1.8-1c-0.3-0.1-0.6-0.3-0.8-0.6c-0.2-0.2-0.3-0.5-0.3-0.9
		c0-0.7,0.4-1.3,1.3-1.9c-0.6-0.3-1.1-0.6-1.4-1.2c-0.3-0.5-0.5-1.2-0.5-1.8c0-1,0.3-1.9,1-2.5c0.7-0.6,1.6-1,2.7-1
		c0.7,0,1.2,0.1,1.6,0.2H678.5z M670,331.3c0,1.4,1.1,2.2,3.2,2.2c2.8,0,4.1-0.9,4.1-2.6c0-0.6-0.2-1.1-0.6-1.4
		c-0.4-0.3-1.1-0.4-2.1-0.4h-1.7C670.9,329.1,670,329.8,670,331.3z M670.8,322.4c0,0.8,0.2,1.4,0.7,1.9c0.5,0.4,1.1,0.7,2,0.7
		c0.9,0,1.5-0.2,2-0.7c0.5-0.4,0.7-1.1,0.7-1.9c0-0.9-0.2-1.6-0.7-2c-0.5-0.4-1.1-0.7-2-0.7c-0.8,0-1.5,0.2-2,0.7
		C671,320.8,670.8,321.5,670.8,322.4z"/>
	<path class="st3" d="M681.4,319.1v6.8c0,1.1,0.2,1.8,0.7,2.3s1.1,0.7,2.1,0.7c1.2,0,2.2-0.3,2.8-0.9c0.6-0.6,0.9-1.7,0.9-3.1v-5.8
		h0.9v10.5h-0.8l-0.2-1.4h-0.1c-0.7,1.1-1.9,1.6-3.6,1.6c-2.4,0-3.6-1.3-3.6-3.8v-6.8H681.4z"/>
	<path class="st3" d="M696.5,329.8c-1.5,0-2.7-0.5-3.6-1.4c-0.9-0.9-1.3-2.3-1.3-3.9c0-1.7,0.4-3,1.2-4c0.8-1,1.9-1.5,3.3-1.5
		c1.2,0,2.2,0.4,2.9,1.3c0.7,0.9,1.1,2,1.1,3.5v0.8h-7.6c0,1.4,0.3,2.5,1,3.3s1.6,1.1,2.8,1.1c0.6,0,1.1,0,1.6-0.1s1-0.3,1.7-0.5
		v0.9c-0.6,0.3-1.1,0.4-1.6,0.5C697.6,329.7,697.1,329.8,696.5,329.8z M696.2,319.7c-1,0-1.8,0.3-2.4,1c-0.6,0.7-1,1.6-1.1,2.9h6.5
		c0-1.2-0.3-2.2-0.8-2.8C697.9,320.1,697.1,319.7,696.2,319.7z"/>
	<path class="st3" d="M709.6,326.8c0,0.9-0.4,1.7-1.1,2.2c-0.7,0.5-1.7,0.8-3,0.8c-1.4,0-2.5-0.2-3.3-0.6v-1
		c1.1,0.5,2.2,0.8,3.3,0.8c1,0,1.8-0.2,2.4-0.5c0.5-0.3,0.8-0.8,0.8-1.4c0-0.5-0.2-1-0.6-1.3c-0.4-0.4-1.1-0.7-2.1-1.1
		c-1-0.4-1.8-0.7-2.2-1c-0.4-0.3-0.7-0.6-1-0.9c-0.2-0.3-0.3-0.8-0.3-1.3c0-0.8,0.3-1.4,1-1.9c0.7-0.5,1.6-0.7,2.8-0.7
		c1.1,0,2.2,0.2,3.2,0.6l-0.4,0.9c-1-0.4-2-0.6-2.9-0.6c-0.9,0-1.5,0.1-2,0.4c-0.5,0.3-0.8,0.7-0.8,1.2c0,0.5,0.2,1,0.6,1.3
		c0.4,0.3,1.1,0.7,2.3,1.1c0.9,0.3,1.6,0.6,2.1,0.9c0.4,0.3,0.8,0.6,1,0.9C709.5,326,709.6,326.4,709.6,326.8z"/>
	<path class="st3" d="M723.8,329.6l-0.2-1.7h-0.1c-0.5,0.7-1.1,1.2-1.6,1.4c-0.6,0.3-1.2,0.4-2,0.4c-1,0-1.8-0.3-2.4-0.8
		c-0.6-0.5-0.9-1.3-0.9-2.2c0-1,0.4-1.8,1.3-2.4c0.9-0.6,2.1-0.9,3.7-0.9l2-0.1v-0.7c0-1-0.2-1.7-0.6-2.3c-0.4-0.5-1.1-0.8-2-0.8
		c-1,0-2,0.3-3,0.8l-0.4-0.8c1.2-0.5,2.3-0.8,3.4-0.8c1.2,0,2,0.3,2.6,0.9c0.6,0.6,0.9,1.5,0.9,2.8v7H723.8z M719.9,328.9
		c1.1,0,2-0.3,2.6-1c0.6-0.6,1-1.5,1-2.7v-1l-1.8,0.1c-1.5,0.1-2.5,0.3-3.1,0.7c-0.6,0.4-0.9,1-0.9,1.8c0,0.7,0.2,1.2,0.6,1.5
		C718.6,328.7,719.2,328.9,719.9,328.9z"/>
	<path class="st3" d="M732,318.9c0.4,0,0.9,0,1.4,0.1l-0.2,0.9c-0.4-0.1-0.9-0.2-1.4-0.2c-0.9,0-1.6,0.4-2.2,1.1s-0.9,1.7-0.9,2.9
		v5.8h-1v-10.5h0.8l0.1,1.9h0.1c0.4-0.8,0.9-1.3,1.4-1.6S731.3,318.9,732,318.9z"/>
	<path class="st3" d="M739.8,329.8c-1.5,0-2.7-0.5-3.6-1.4c-0.9-0.9-1.3-2.3-1.3-3.9c0-1.7,0.4-3,1.2-4c0.8-1,1.9-1.5,3.3-1.5
		c1.2,0,2.2,0.4,2.9,1.3c0.7,0.9,1.1,2,1.1,3.5v0.8H736c0,1.4,0.3,2.5,1,3.3s1.6,1.1,2.8,1.1c0.6,0,1.1,0,1.6-0.1s1-0.3,1.7-0.5v0.9
		c-0.6,0.3-1.1,0.4-1.6,0.5C741,329.7,740.4,329.8,739.8,329.8z M739.5,319.7c-1,0-1.8,0.3-2.4,1c-0.6,0.7-1,1.6-1.1,2.9h6.5
		c0-1.2-0.3-2.2-0.8-2.8C741.2,320.1,740.5,319.7,739.5,319.7z"/>
	<path class="st3" d="M759.7,319.1v0.7l-2.2,0.1c0.6,0.7,0.9,1.5,0.9,2.4c0,1-0.3,1.8-1,2.5c-0.7,0.6-1.6,0.9-2.7,0.9
		c-0.5,0-0.8,0-1-0.1c-0.4,0.2-0.7,0.4-0.9,0.7c-0.2,0.3-0.3,0.6-0.3,0.9c0,0.3,0.1,0.6,0.4,0.7c0.3,0.2,0.7,0.2,1.3,0.2h1.8
		c1.1,0,2,0.2,2.6,0.7c0.6,0.5,0.9,1.1,0.9,2c0,1.1-0.4,2-1.3,2.6c-0.9,0.6-2.2,0.9-3.8,0.9c-1.3,0-2.3-0.3-3.1-0.8
		c-0.7-0.5-1.1-1.2-1.1-2.1c0-0.7,0.2-1.3,0.7-1.8c0.4-0.5,1.1-0.8,1.8-1c-0.3-0.1-0.6-0.3-0.8-0.6c-0.2-0.2-0.3-0.5-0.3-0.9
		c0-0.7,0.4-1.3,1.3-1.9c-0.6-0.3-1.1-0.6-1.4-1.2c-0.3-0.5-0.5-1.2-0.5-1.8c0-1,0.3-1.9,1-2.5c0.7-0.6,1.6-1,2.7-1
		c0.7,0,1.2,0.1,1.6,0.2H759.7z M751.2,331.3c0,1.4,1.1,2.2,3.2,2.2c2.8,0,4.1-0.9,4.1-2.6c0-0.6-0.2-1.1-0.6-1.4
		c-0.4-0.3-1.1-0.4-2.1-0.4h-1.7C752.2,329.1,751.2,329.8,751.2,331.3z M752,322.4c0,0.8,0.2,1.4,0.7,1.9c0.5,0.4,1.1,0.7,2,0.7
		c0.9,0,1.5-0.2,2-0.7c0.5-0.4,0.7-1.1,0.7-1.9c0-0.9-0.2-1.6-0.7-2c-0.5-0.4-1.1-0.7-2-0.7c-0.8,0-1.5,0.2-2,0.7
		C752.3,320.8,752,321.5,752,322.4z"/>
	<path class="st3" d="M770.5,324.3c0,1.7-0.4,3-1.2,4c-0.8,1-2,1.4-3.4,1.4c-0.9,0-1.7-0.2-2.4-0.7c-0.7-0.4-1.2-1.1-1.6-1.9
		c-0.4-0.8-0.6-1.8-0.6-2.9c0-1.7,0.4-3,1.2-4s2-1.4,3.4-1.4c1.4,0,2.6,0.5,3.4,1.5C770.1,321.3,770.5,322.6,770.5,324.3z
		 M762.3,324.3c0,1.4,0.3,2.6,1,3.4c0.6,0.8,1.5,1.2,2.7,1.2s2.1-0.4,2.7-1.2c0.6-0.8,0.9-1.9,0.9-3.4c0-1.4-0.3-2.6-1-3.4
		s-1.5-1.2-2.7-1.2c-1.2,0-2,0.4-2.7,1.2S762.3,322.9,762.3,324.3z"/>
	<path class="st3" d="M773.3,316.2c0-0.6,0.2-0.9,0.6-0.9c0.2,0,0.4,0.1,0.5,0.2s0.2,0.4,0.2,0.7c0,0.3-0.1,0.5-0.2,0.7
		c-0.1,0.2-0.3,0.3-0.5,0.3C773.5,317.1,773.3,316.8,773.3,316.2z M774.4,329.6h-1v-10.5h1V329.6z"/>
	<path class="st3" d="M785.2,329.6v-6.8c0-1.1-0.2-1.8-0.7-2.3c-0.4-0.5-1.1-0.7-2.1-0.7c-1.3,0-2.2,0.3-2.8,0.9
		c-0.6,0.6-0.9,1.7-0.9,3.1v5.8h-1v-10.5h0.8l0.2,1.4h0.1c0.7-1.1,1.9-1.6,3.6-1.6c2.4,0,3.6,1.3,3.6,3.8v6.9H785.2z"/>
	<path class="st3" d="M797.7,319.1v0.7l-2.2,0.1c0.6,0.7,0.9,1.5,0.9,2.4c0,1-0.3,1.8-1,2.5c-0.7,0.6-1.6,0.9-2.7,0.9
		c-0.5,0-0.8,0-1-0.1c-0.4,0.2-0.7,0.4-0.9,0.7c-0.2,0.3-0.3,0.6-0.3,0.9c0,0.3,0.1,0.6,0.4,0.7c0.3,0.2,0.7,0.2,1.3,0.2h1.8
		c1.1,0,2,0.2,2.6,0.7c0.6,0.5,0.9,1.1,0.9,2c0,1.1-0.4,2-1.3,2.6c-0.9,0.6-2.2,0.9-3.8,0.9c-1.3,0-2.3-0.3-3.1-0.8
		c-0.7-0.5-1.1-1.2-1.1-2.1c0-0.7,0.2-1.3,0.7-1.8c0.4-0.5,1.1-0.8,1.8-1c-0.3-0.1-0.6-0.3-0.8-0.6c-0.2-0.2-0.3-0.5-0.3-0.9
		c0-0.7,0.4-1.3,1.3-1.9c-0.6-0.3-1.1-0.6-1.4-1.2c-0.3-0.5-0.5-1.2-0.5-1.8c0-1,0.3-1.9,1-2.5c0.7-0.6,1.6-1,2.7-1
		c0.7,0,1.2,0.1,1.6,0.2H797.7z M789.2,331.3c0,1.4,1.1,2.2,3.2,2.2c2.8,0,4.1-0.9,4.1-2.6c0-0.6-0.2-1.1-0.6-1.4
		c-0.4-0.3-1.1-0.4-2.1-0.4h-1.7C790.2,329.1,789.2,329.8,789.2,331.3z M790.1,322.4c0,0.8,0.2,1.4,0.7,1.9c0.5,0.4,1.1,0.7,2,0.7
		c0.9,0,1.5-0.2,2-0.7c0.5-0.4,0.7-1.1,0.7-1.9c0-0.9-0.2-1.6-0.7-2c-0.5-0.4-1.1-0.7-2-0.7c-0.8,0-1.5,0.2-2,0.7
		C790.3,320.8,790.1,321.5,790.1,322.4z"/>
	<path class="st3" d="M807.8,328.9c0.6,0,1.1-0.1,1.6-0.2v0.8c-0.5,0.2-1,0.2-1.6,0.2c-0.9,0-1.6-0.2-2-0.7s-0.7-1.3-0.7-2.3v-6.8
		h-1.6v-0.6l1.6-0.4l0.5-2.4h0.5v2.5h3.1v0.8H806v6.6c0,0.8,0.1,1.4,0.4,1.8C806.7,328.7,807.2,328.9,807.8,328.9z"/>
	<path class="st3" d="M820.3,324.3c0,1.7-0.4,3-1.2,4c-0.8,1-2,1.4-3.4,1.4c-0.9,0-1.7-0.2-2.4-0.7c-0.7-0.4-1.2-1.1-1.6-1.9
		c-0.4-0.8-0.6-1.8-0.6-2.9c0-1.7,0.4-3,1.2-4s2-1.4,3.4-1.4c1.4,0,2.6,0.5,3.4,1.5C819.9,321.3,820.3,322.6,820.3,324.3z
		 M812,324.3c0,1.4,0.3,2.6,1,3.4c0.6,0.8,1.5,1.2,2.7,1.2s2.1-0.4,2.7-1.2c0.6-0.8,0.9-1.9,0.9-3.4c0-1.4-0.3-2.6-1-3.4
		s-1.5-1.2-2.7-1.2c-1.2,0-2,0.4-2.7,1.2S812,322.9,812,324.3z"/>
</g>
<g>
	<path class="st3" d="M642.9,357.2l-0.2-1.7h-0.1c-0.5,0.7-1.1,1.2-1.6,1.4s-1.2,0.4-2,0.4c-1,0-1.8-0.3-2.4-0.8
		c-0.6-0.5-0.9-1.3-0.9-2.2c0-1,0.4-1.8,1.3-2.4c0.9-0.6,2.1-0.9,3.7-0.9l2-0.1v-0.7c0-1-0.2-1.7-0.6-2.3c-0.4-0.5-1.1-0.8-2-0.8
		c-1,0-2,0.3-3,0.8l-0.4-0.8c1.2-0.5,2.3-0.8,3.4-0.8c1.2,0,2,0.3,2.6,0.9c0.6,0.6,0.9,1.5,0.9,2.8v7H642.9z M639.1,356.5
		c1.1,0,2-0.3,2.6-1c0.6-0.6,1-1.5,1-2.7v-1l-1.8,0.1c-1.5,0.1-2.5,0.3-3.1,0.7s-0.9,1-0.9,1.8c0,0.7,0.2,1.2,0.6,1.5
		S638.3,356.5,639.1,356.5z"/>
	<path class="st3" d="M651.2,357.4c-1.5,0-2.7-0.5-3.5-1.4c-0.8-0.9-1.3-2.3-1.3-4c0-1.7,0.4-3.1,1.3-4.1c0.9-1,2.1-1.5,3.6-1.5
		c0.9,0,1.8,0.2,2.6,0.5l-0.3,0.8c-0.9-0.3-1.7-0.5-2.4-0.5c-1.3,0-2.3,0.4-2.9,1.2c-0.7,0.8-1,1.9-1,3.4c0,1.4,0.3,2.5,1,3.3
		c0.7,0.8,1.6,1.2,2.8,1.2c1,0,1.8-0.2,2.7-0.5v0.9C653.2,357.2,652.3,357.4,651.2,357.4z"/>
	<path class="st3" d="M663.7,357.2v-6.8c0-1.1-0.2-1.8-0.7-2.3c-0.4-0.5-1.1-0.7-2.1-0.7c-1.3,0-2.2,0.3-2.8,0.9
		c-0.6,0.6-0.9,1.7-0.9,3.1v5.8h-1v-15h1v4.8l0,1.3h0.1c0.4-0.6,0.9-1.1,1.5-1.4c0.6-0.3,1.3-0.4,2.2-0.4c2.4,0,3.6,1.3,3.6,3.8v6.9
		H663.7z"/>
	<path class="st3" d="M667.9,343.8c0-0.6,0.2-0.9,0.6-0.9c0.2,0,0.4,0.1,0.5,0.2s0.2,0.4,0.2,0.7c0,0.3-0.1,0.5-0.2,0.7
		c-0.1,0.2-0.3,0.3-0.5,0.3C668.1,344.8,667.9,344.4,667.9,343.8z M669,357.2h-1v-10.5h1V357.2z"/>
	<path class="st3" d="M676.8,357.4c-1.5,0-2.7-0.5-3.6-1.4c-0.9-0.9-1.3-2.3-1.3-3.9c0-1.7,0.4-3,1.2-4c0.8-1,1.9-1.5,3.3-1.5
		c1.2,0,2.2,0.4,2.9,1.3c0.7,0.9,1.1,2,1.1,3.5v0.8h-7.6c0,1.4,0.3,2.5,1,3.3s1.6,1.1,2.8,1.1c0.6,0,1.1,0,1.6-0.1s1-0.3,1.7-0.5
		v0.9c-0.6,0.3-1.1,0.4-1.6,0.5C677.9,357.4,677.4,357.4,676.8,357.4z M676.5,347.4c-1,0-1.8,0.3-2.4,1c-0.6,0.7-1,1.6-1.1,2.9h6.5
		c0-1.2-0.3-2.2-0.8-2.8C678.1,347.7,677.4,347.4,676.5,347.4z"/>
	<path class="st3" d="M685.7,357.2l-4.1-10.5h1l2.7,7.1c0.4,0.9,0.6,1.7,0.8,2.4h0.1c0.3-0.9,0.5-1.7,0.8-2.4l2.7-7.1h1l-4.1,10.5
		H685.7z"/>
	<path class="st3" d="M696.7,357.4c-1.5,0-2.7-0.5-3.6-1.4c-0.9-0.9-1.3-2.3-1.3-3.9c0-1.7,0.4-3,1.2-4c0.8-1,1.9-1.5,3.3-1.5
		c1.2,0,2.2,0.4,2.9,1.3c0.7,0.9,1.1,2,1.1,3.5v0.8h-7.6c0,1.4,0.3,2.5,1,3.3s1.6,1.1,2.8,1.1c0.6,0,1.1,0,1.6-0.1s1-0.3,1.7-0.5
		v0.9c-0.6,0.3-1.1,0.4-1.6,0.5C697.8,357.4,697.3,357.4,696.7,357.4z M696.4,347.4c-1,0-1.8,0.3-2.4,1c-0.6,0.7-1,1.6-1.1,2.9h6.5
		c0-1.2-0.3-2.2-0.8-2.8C698,347.7,697.3,347.4,696.4,347.4z"/>
	<path class="st3" d="M706.6,346.7h1l2.2,5.9c0.7,1.8,1.1,3,1.3,3.7h0.1c0.3-0.8,0.7-2.1,1.3-3.7l2.2-5.8h1l-4.7,12.2
		c-0.4,1-0.7,1.7-1,2s-0.6,0.6-0.9,0.8c-0.3,0.2-0.8,0.3-1.2,0.3c-0.4,0-0.8-0.1-1.2-0.2v-0.8c0.4,0.1,0.8,0.2,1.2,0.2
		c0.3,0,0.6-0.1,0.9-0.2c0.2-0.2,0.5-0.4,0.7-0.7c0.2-0.3,0.4-0.8,0.7-1.5c0.3-0.7,0.4-1.2,0.5-1.4L706.6,346.7z"/>
	<path class="st3" d="M726.1,352c0,1.7-0.4,3-1.2,4c-0.8,1-2,1.4-3.4,1.4c-0.9,0-1.7-0.2-2.4-0.7c-0.7-0.4-1.2-1.1-1.6-1.9
		c-0.4-0.8-0.6-1.8-0.6-2.9c0-1.7,0.4-3,1.2-4s2-1.4,3.4-1.4c1.4,0,2.6,0.5,3.4,1.5C725.7,349,726.1,350.3,726.1,352z M717.9,352
		c0,1.4,0.3,2.6,1,3.4c0.6,0.8,1.5,1.2,2.7,1.2s2.1-0.4,2.7-1.2c0.6-0.8,0.9-1.9,0.9-3.4c0-1.4-0.3-2.6-1-3.4s-1.5-1.2-2.7-1.2
		c-1.2,0-2,0.4-2.7,1.2S717.9,350.5,717.9,352z"/>
	<path class="st3" d="M729.9,346.7v6.8c0,1.1,0.2,1.8,0.7,2.3s1.1,0.7,2.1,0.7c1.2,0,2.2-0.3,2.8-0.9c0.6-0.6,0.9-1.7,0.9-3.1v-5.8
		h0.9v10.5h-0.8l-0.2-1.4h-0.1c-0.7,1.1-1.9,1.6-3.6,1.6c-2.4,0-3.6-1.3-3.6-3.8v-6.8H729.9z"/>
	<path class="st3" d="M744.8,346.5c0.4,0,0.9,0,1.4,0.1l-0.2,0.9c-0.4-0.1-0.9-0.2-1.4-0.2c-0.9,0-1.6,0.4-2.2,1.1s-0.9,1.7-0.9,2.9
		v5.8h-1v-10.5h0.8l0.1,1.9h0.1c0.4-0.8,0.9-1.3,1.4-1.6S744.1,346.5,744.8,346.5z"/>
	<path class="st3" d="M765.6,350.1c0,2.2-0.6,4-1.7,5.3c-1.1,1.3-2.7,2-4.6,2c-2,0-3.5-0.7-4.6-2c-1.1-1.3-1.7-3.1-1.7-5.3
		c0-2.2,0.6-4,1.7-5.3s2.7-1.9,4.6-1.9c2,0,3.5,0.6,4.6,1.9S765.6,347.9,765.6,350.1z M754.1,350.1c0,2,0.5,3.6,1.4,4.7
		c0.9,1.1,2.2,1.7,3.9,1.7c1.7,0,3-0.5,3.9-1.6c0.9-1.1,1.3-2.7,1.3-4.7c0-2-0.4-3.6-1.3-4.7c-0.9-1.1-2.2-1.6-3.9-1.6
		c-1.7,0-3,0.5-3.9,1.6C754.5,346.6,754.1,348.1,754.1,350.1z"/>
	<path class="st3" d="M778.3,357.2h-1.2l-5.4-7.4l-1.9,1.7v5.8h-1v-14.1h1v7.3l1.6-1.6l5.5-5.8h1.3l-5.8,6L778.3,357.2z"/>
	<path class="st3" d="M781.3,351.1v6.1h-1v-14.1h3.4c1.7,0,3,0.3,3.9,1c0.8,0.6,1.3,1.6,1.3,2.9c0,0.9-0.2,1.7-0.7,2.4
		s-1.3,1.1-2.3,1.4l3.8,6.4h-1.2l-3.6-6.1H781.3z M781.3,350.2h2.7c1.2,0,2.1-0.3,2.8-0.8s1-1.3,1-2.3c0-1.1-0.3-1.9-1-2.3
		c-0.6-0.5-1.7-0.7-3.1-0.7h-2.3V350.2z"/>
	<path class="st3" d="M798.3,354.5c0,0.9-0.4,1.7-1.1,2.2c-0.7,0.5-1.7,0.8-3,0.8c-1.4,0-2.5-0.2-3.3-0.6v-1
		c1.1,0.5,2.2,0.8,3.3,0.8c1,0,1.8-0.2,2.4-0.5c0.5-0.3,0.8-0.8,0.8-1.4c0-0.5-0.2-1-0.6-1.3c-0.4-0.4-1.1-0.7-2.1-1.1
		c-1-0.4-1.8-0.7-2.2-1c-0.4-0.3-0.7-0.6-1-0.9c-0.2-0.3-0.3-0.8-0.3-1.3c0-0.8,0.3-1.4,1-1.9c0.7-0.5,1.6-0.7,2.8-0.7
		c1.1,0,2.2,0.2,3.2,0.6l-0.4,0.9c-1-0.4-2-0.6-2.9-0.6c-0.9,0-1.5,0.1-2,0.4c-0.5,0.3-0.8,0.7-0.8,1.2c0,0.5,0.2,1,0.6,1.3
		c0.4,0.3,1.1,0.7,2.3,1.1c0.9,0.3,1.6,0.6,2.1,0.9c0.4,0.3,0.8,0.6,1,0.9C798.2,353.6,798.3,354,798.3,354.5z"/>
	<path class="st3" d="M800.8,356.5c0-0.6,0.3-0.9,0.8-0.9c0.5,0,0.8,0.3,0.8,0.9c0,0.6-0.3,0.9-0.8,0.9
		C801.1,357.4,800.8,357.1,800.8,356.5z"/>
</g>
<g>
	<path class="st3" d="M240.8,415.9c0-4.5,3.4-7.8,8.1-7.8c4.6,0,8.1,3.3,8.1,7.8c0,4.5-3.4,7.8-8.1,7.8
		C244.2,423.7,240.8,420.4,240.8,415.9z M254.8,415.9c0-3.4-2.5-5.8-5.9-5.8c-3.4,0-5.9,2.5-5.9,5.8c0,3.4,2.5,5.8,5.9,5.8
		C252.3,421.8,254.8,419.3,254.8,415.9z"/>
	<path class="st3" d="M259.9,417v-8.6h2.2v8.6c0,3.4,1.5,4.9,4.3,4.9s4.3-1.5,4.3-4.9v-8.6h2.1v8.6c0,4.4-2.4,6.7-6.4,6.7
		C262.4,423.7,259.9,421.4,259.9,417z"/>
	<path class="st3" d="M279.8,410.2h-5.2v-1.9h12.6v1.9H282v13.3h-2.2V410.2z"/>
	<path class="st3" d="M287.9,415.9c0-4.5,3.4-7.8,8.1-7.8c2.3,0,4.4,0.8,5.8,2.4l-1.4,1.4c-1.2-1.2-2.6-1.8-4.3-1.8
		c-3.4,0-6,2.5-6,5.8c0,3.4,2.5,5.8,6,5.8c1.7,0,3.1-0.6,4.3-1.8l1.4,1.4c-1.4,1.6-3.4,2.4-5.8,2.4
		C291.3,423.7,287.9,420.4,287.9,415.9z"/>
	<path class="st3" d="M303.1,415.9c0-4.5,3.4-7.8,8.1-7.8c4.6,0,8.1,3.3,8.1,7.8c0,4.5-3.4,7.8-8.1,7.8
		C306.5,423.7,303.1,420.4,303.1,415.9z M317.1,415.9c0-3.4-2.5-5.8-5.9-5.8c-3.4,0-5.9,2.5-5.9,5.8c0,3.4,2.5,5.8,5.9,5.8
		C314.5,421.8,317.1,419.3,317.1,415.9z"/>
	<path class="st3" d="M336.5,423.5l0-11.1l-5.5,9.2h-1l-5.5-9.2v11h-2.1v-15.2h1.8l6.3,10.7l6.3-10.7h1.8l0,15.2H336.5z"/>
	<path class="st3" d="M354,421.6v1.9h-11v-15.2h10.7v1.9h-8.6v4.7h7.6v1.8h-7.6v4.9H354z"/>
</g>
<g>
	<path class="st3" d="M674.5,415.9c0-4.5,3.4-7.8,8.1-7.8c4.6,0,8.1,3.3,8.1,7.8c0,4.5-3.4,7.8-8.1,7.8
		C677.9,423.7,674.5,420.4,674.5,415.9z M688.4,415.9c0-3.4-2.5-5.8-5.9-5.8c-3.4,0-5.9,2.5-5.9,5.8c0,3.4,2.5,5.8,5.9,5.8
		C685.9,421.8,688.4,419.3,688.4,415.9z"/>
	<path class="st3" d="M693.6,417v-8.6h2.2v8.6c0,3.4,1.5,4.9,4.3,4.9s4.3-1.5,4.3-4.9v-8.6h2.1v8.6c0,4.4-2.4,6.7-6.4,6.7
		C696,423.7,693.6,421.4,693.6,417z"/>
	<path class="st3" d="M713.5,410.2h-5.2v-1.9h12.6v1.9h-5.2v13.3h-2.2V410.2z"/>
	<path class="st3" d="M735.3,413.6c0,3.3-2.4,5.3-6.3,5.3h-3.8v4.6H723v-15.2h5.9C732.9,408.3,735.3,410.3,735.3,413.6z
		 M733.1,413.6c0-2.2-1.5-3.4-4.2-3.4h-3.7v6.8h3.7C731.7,417,733.1,415.8,733.1,413.6z"/>
	<path class="st3" d="M738.2,417v-8.6h2.2v8.6c0,3.4,1.5,4.9,4.3,4.9s4.3-1.5,4.3-4.9v-8.6h2.1v8.6c0,4.4-2.4,6.7-6.4,6.7
		C740.6,423.7,738.2,421.4,738.2,417z"/>
	<path class="st3" d="M758.1,410.2h-5.2v-1.9h12.6v1.9h-5.2v13.3h-2.2V410.2z"/>
</g>
<line class="st5" x1="208.9" y1="415.6" x2="65.5" y2="415.6"/>
<line class="st5" x1="525.3" y1="415.6" x2="381.8" y2="415.6"/>
<line class="st5" x1="643.5" y1="415.6" x2="609.2" y2="415.6"/>
<line class="st5" x1="818.8" y1="415.6" x2="784.5" y2="415.6"/>
<line class="st5" x1="524.3" y1="422.2" x2="524.3" y2="409"/>
<line class="st5" x1="65.5" y1="422.2" x2="65.5" y2="409"/>
<line class="st5" x1="608.2" y1="422.2" x2="608.2" y2="409"/>
<line class="st5" x1="818.8" y1="422.2" x2="818.8" y2="409"/>
</svg>
